<?xml version="1.0" encoding="utf-8"?>
<!-- Generator: Adobe Illustrator 16.0.3, SVG Export Plug-In . SVG Version: 6.00 Build 0)  -->
<!DOCTYPE svg PUBLIC "-//W3C//DTD SVG 1.1//EN" "http://www.w3.org/Graphics/SVG/1.1/DTD/svg11.dtd">
<svg version="1.1" id="Capa_1" xmlns="http://www.w3.org/2000/svg" xmlns:xlink="http://www.w3.org/1999/xlink" x="0px" y="0px"
	 width="136.617px" height="184.396px" viewBox="-2 -2 136.617 184.396" enable-background="new -2 -2 136.617 184.396"
	 xml:space="preserve">
<g id="Background">
</g>
<path fill="#FFFFFF" stroke="#FFFFFF" stroke-miterlimit="10" d="M28.014,88.905L28.014,88.905c-4.332-0.002-7.875-3.548-7.873-7.88
	l0,0c0.002-4.332,3.548-7.875,7.88-7.873l0,0c4.332,0.001,7.875,3.548,7.873,7.88l0,0C35.892,85.365,32.346,88.908,28.014,88.905z"
	/>
<g>
	<path fill="#FFFFFF" stroke="#FFFFFF" stroke-miterlimit="10" d="M54.087,88.917L54.087,88.917
		c-4.332-0.002-7.875-3.548-7.873-7.88l0,0c0.002-4.332,3.548-7.875,7.88-7.873l0,0c4.332,0.002,7.875,3.548,7.873,7.88l0,0
		C61.965,85.377,58.419,88.919,54.087,88.917z"/>
</g>
<g>
	<path fill="#FFFFFF" stroke="#FFFFFF" stroke-miterlimit="10" d="M80.161,88.93L80.161,88.93c-4.332-0.003-7.875-3.549-7.873-7.881
		l0,0c0.002-4.332,3.548-7.875,7.88-7.873l0,0c4.332,0.003,7.875,3.549,7.873,7.881l0,0C88.039,85.389,84.492,88.932,80.161,88.93z"
		/>
</g>
<g>
	<path fill="#FFFFFF" stroke="#FFFFFF" stroke-miterlimit="10" d="M106.234,88.942L106.234,88.942
		c-4.332-0.002-7.875-3.548-7.873-7.88l0,0c0.002-4.332,3.548-7.875,7.88-7.873l0,0c4.331,0.002,7.875,3.548,7.872,7.88l0,0
		C114.111,85.401,110.566,88.944,106.234,88.942z"/>
</g>
<g>
	<path fill="#FFFFFF" stroke="#FFFFFF" stroke-miterlimit="10" d="M28.002,114.436L28.002,114.436
		c-4.332-0.002-7.875-3.548-7.873-7.88l0,0c0.002-4.332,3.548-7.875,7.88-7.873l0,0c4.332,0.002,7.875,3.549,7.873,7.88l0,0
		C35.88,110.895,32.334,114.438,28.002,114.436z"/>
</g>
<g>
	<path fill="#FFFFFF" stroke="#FFFFFF" stroke-miterlimit="10" d="M54.075,114.448L54.075,114.448
		c-4.332-0.003-7.875-3.549-7.873-7.881l0,0c0.002-4.332,3.548-7.874,7.88-7.872l0,0c4.332,0.002,7.875,3.548,7.873,7.88l0,0
		C61.953,110.907,58.407,114.45,54.075,114.448z"/>
</g>
<g>
	<path fill="#FFFFFF" stroke="#FFFFFF" stroke-miterlimit="10" d="M80.148,114.46L80.148,114.46
		c-4.332-0.002-7.875-3.548-7.873-7.88l0,0c0.002-4.332,3.549-7.875,7.881-7.873l0,0c4.332,0.002,7.875,3.548,7.871,7.88l0,0
		C88.025,110.919,84.48,114.462,80.148,114.46z"/>
</g>
<g>
	<path fill="#FFFFFF" stroke="#FFFFFF" stroke-miterlimit="10" d="M27.99,140.237L27.99,140.237
		c-4.332-0.002-7.875-3.548-7.873-7.88l0,0c0.002-4.332,3.548-7.875,7.88-7.873l0,0c4.332,0.002,7.875,3.548,7.873,7.881l0,0
		C35.868,136.697,32.322,140.239,27.99,140.237z"/>
</g>
<g>
	<path fill="#FFFFFF" stroke="#FFFFFF" stroke-miterlimit="10" d="M54.063,140.249L54.063,140.249
		c-4.332-0.001-7.875-3.548-7.873-7.88l0,0c0.002-4.332,3.548-7.874,7.88-7.872l0,0c4.332,0.002,7.875,3.548,7.873,7.88l0,0
		C61.941,136.709,58.395,140.252,54.063,140.249z"/>
</g>
<g>
	<path fill="#FFFFFF" stroke="#FFFFFF" stroke-miterlimit="10" d="M80.137,140.261L80.137,140.261
		c-4.332-0.002-7.875-3.548-7.873-7.88l0,0c0.004-4.332,3.549-7.875,7.881-7.873l0,0c4.332,0.003,7.875,3.55,7.873,7.882l0,0
		C88.016,136.721,84.469,140.264,80.137,140.261z"/>
</g>
<g>
	<path fill="#FFFFFF" stroke="#FFFFFF" stroke-miterlimit="10" d="M27.979,162.418L27.979,162.418
		c-4.332-0.002-7.875-3.548-7.873-7.88l0,0c0.002-4.332,3.548-7.875,7.88-7.873l0,0c4.332,0.002,7.875,3.549,7.873,7.88l0,0
		C35.857,158.877,32.312,162.42,27.979,162.418z"/>
</g>
<g>
	<path fill="#FFFFFF" stroke="#FFFFFF" stroke-miterlimit="10" d="M54.053,162.43L54.053,162.43
		c-4.332-0.003-7.875-3.549-7.873-7.881l0,0c0.002-4.332,3.548-7.874,7.88-7.872l0,0c4.332,0.003,7.874,3.549,7.873,7.881l0,0
		C61.931,158.89,58.385,162.432,54.053,162.43z"/>
</g>
<g>
	<path fill="#FFFFFF" stroke="#FFFFFF" stroke-miterlimit="10" d="M80.126,162.442L80.126,162.442
		c-4.332-0.002-7.874-3.548-7.872-7.88l0,0c0.002-4.332,3.548-7.875,7.88-7.873l0,0c4.332,0.002,7.875,3.548,7.873,7.88l0,0
		C88.004,158.901,84.458,162.444,80.126,162.442z"/>
</g>
<g>
	<path fill="#FFFFFF" stroke="#FFFFFF" stroke-miterlimit="10" d="M106.223,114.473L106.223,114.473
		c-4.332-0.002-7.875-3.55-7.873-7.881l0,0c0.002-4.333,3.549-7.875,7.881-7.873l0,0c4.332,0.003,7.875,3.549,7.873,7.881l0,0
		C114.102,110.932,110.555,114.475,106.223,114.473z"/>
</g>
<path fill="#FFFFFF" stroke="#FFFFFF" stroke-miterlimit="10" d="M111.225,162.735l-11.136-0.005
	c-1.875-0.001-3.396-1.521-3.394-3.396l0.014-29.469c0.001-1.875,1.521-3.395,3.396-3.394l11.136,0.005
	c1.875,0.001,3.396,1.521,3.394,3.396l-0.014,29.468C114.62,161.217,113.1,162.736,111.225,162.735z"/>
<path fill="#00FFFF" d="M120.617,182.396H12c-7.72,0-14-6.28-14-14V12C-2,4.28,4.28-2,12-2h108.617c7.72,0,14,6.28,14,14v156.396
	C134.617,176.116,128.337,182.396,120.617,182.396z M12,2C6.486,2,2,6.486,2,12v156.396c0,5.514,4.486,10,10,10h108.617
	c5.514,0,10-4.486,10-10V12c0-5.514-4.486-10-10-10H12z"/>
<path fill="#FF4FC6" d="M104.143,62.286H28.474c-7.514,0-13.627-6.146-13.627-13.699V34.769c0-7.554,6.113-13.699,13.627-13.699
	h75.668c7.514,0,13.627,6.146,13.627,13.699v13.817C117.77,56.14,111.656,62.286,104.143,62.286z M28.474,25.07
	c-5.308,0-9.627,4.351-9.627,9.699v13.817c0,5.348,4.319,9.699,9.627,9.699h75.668c5.309,0,9.627-4.351,9.627-9.699V34.769
	c0-5.348-4.318-9.699-9.627-9.699"/>
<g>
	<path fill="#00FFFF" d="M31.836,35.89v4.781l-1.51,1.51l-0.503-0.503v-6.542L31.836,35.89z M31.836,44.194v5.284l-0.755,2.013
		c-0.671-0.167-1.09-0.587-1.258-1.258v-7.045l0.503-0.503L31.836,44.194z M38.63,35.387h-6.769l-2.013-0.755
		c0.167-0.671,0.587-1.09,1.258-1.258h8.278L38.63,35.387z M38.378,41.426l1.006,1.006l-1.006,1.006h-6.542l-1.006-1.006
		l1.006-1.006H38.378z"/>
	<path fill="#00FFFF" d="M43.914,35.89v4.781l-1.51,1.51l-0.503-0.503v-6.542L43.914,35.89z M43.914,44.194v5.284l-0.755,2.013
		c-0.671-0.167-1.09-0.587-1.258-1.258v-7.045l0.503-0.503L43.914,44.194z M49.953,35.387h-6.014l-2.013-0.755
		c0.167-0.671,0.587-1.09,1.258-1.258h7.523L49.953,35.387z M50.456,41.426l1.006,1.006l-1.006,1.006h-6.542l-1.006-1.006
		l1.006-1.006H50.456z M44.417,43.942h1.51l6.542,6.542c-0.336,0.671-1.007,1.006-2.013,1.006l-6.039-6.039V43.942z M50.456,40.671
		v-5.284l0.755-2.013c0.671,0.168,1.09,0.587,1.258,1.258v7.045l-0.503,0.503L50.456,40.671z"/>
	<path fill="#00FFFF" d="M56.998,35.89v4.781l-1.51,1.51l-0.503-0.503v-6.542L56.998,35.89z M54.985,49.73v-6.542l0.503-0.503
		l1.51,1.51v4.781L54.985,49.73z M64.547,51.491h-8.304c-0.671-0.167-1.09-0.587-1.258-1.258l2.013-0.755h6.794L64.547,51.491z
		 M63.792,35.387h-6.769l-2.013-0.755c0.167-0.671,0.587-1.09,1.258-1.258h8.278L63.792,35.387z M63.541,41.426l1.006,1.006
		l-1.006,1.006h-6.542l-1.006-1.006l1.006-1.006H63.541z"/>
	<path fill="#00FFFF" d="M69.077,35.89v4.781l-1.51,1.51l-0.504-0.503v-6.542L69.077,35.89z M67.063,49.73v-6.542l0.504-0.503
		l1.51,1.51v4.781L67.063,49.73z M76.626,51.491h-8.304c-0.672-0.167-1.091-0.587-1.259-1.258l2.014-0.755h6.794L76.626,51.491z
		 M75.871,35.387h-6.77l-2.013-0.755c0.168-0.671,0.587-1.09,1.258-1.258h8.279L75.871,35.387z M75.619,41.426l1.007,1.006
		l-1.007,1.006h-6.542l-1.007-1.006l1.007-1.006H75.619z"/>
	<path fill="#00FFFF" d="M79.645,42.181l-0.504-0.503v-7.045c0.168-0.671,0.587-1.09,1.259-1.258l0.755,2.013v5.284L79.645,42.181z
		 M81.154,44.194v5.284l-0.755,2.013c-0.672-0.167-1.091-0.587-1.259-1.258v-7.045l0.504-0.503L81.154,44.194z M81.657,49.478h6.039
		l2.013,0.755c-0.168,0.671-0.587,1.091-1.258,1.258h-7.549L81.657,49.478z"/>
	<path fill="#00FFFF" d="M92.729,42.181l-0.504-0.503V35.89l1.259-1.258l0.755,0.755v5.284L92.729,42.181z M94.239,44.194v5.284
		l-0.755,0.755l-1.259-1.258v-5.788l0.504-0.503L94.239,44.194z M100.278,35.387h-5.536l-1.007-1.007l1.007-1.006h5.536l1.006,1.006
		L100.278,35.387z M101.284,50.485l-1.006,1.006h-5.536l-1.007-1.006l1.007-1.007h5.536L101.284,50.485z M100.781,40.671v-5.284
		l0.755-0.755l1.258,1.258v5.788l-0.503,0.503L100.781,40.671z M102.291,42.684l0.503,0.503v5.788l-1.258,1.258l-0.755-0.755v-5.284
		L102.291,42.684z"/>
</g>
</svg>
