<?xml version="1.0" encoding="utf-8"?>
<!-- Generator: Adobe Illustrator 24.1.1, SVG Export Plug-In . SVG Version: 6.00 Build 0)  -->
<svg version="1.1" id="Layer_1" xmlns="http://www.w3.org/2000/svg" xmlns:xlink="http://www.w3.org/1999/xlink" x="0px" y="0px"
	 width="225px" height="225px" viewBox="0 0 225 225" style="enable-background:new 0 0 225 225;" xml:space="preserve">
<style type="text/css">
	.st0{fill:#FFFFFF;stroke:#000000;stroke-miterlimit:10;}
	.st1{enable-background:new    ;}
</style>
<rect x="0.5" y="0.5" class="st0" width="224" height="224"/>
<g class="st1">
	<path d="M64.9,113.6v-2l11.8-5v2.2l-9.3,3.8l9.3,3.9v2.2L64.9,113.6z"/>
	<path d="M79.7,106.1v-2.5h2.2v2.5H79.7z M79.7,121.4v-12.9h2.2v12.9H79.7z"/>
	<path d="M85.7,121.4v-11.2h-1.9v-1.7h1.9v-1.4c0-0.9,0.1-1.5,0.2-1.9c0.2-0.6,0.6-1,1.1-1.4s1.3-0.5,2.2-0.5c0.6,0,1.3,0.1,2,0.2
		l-0.3,1.9c-0.5-0.1-0.9-0.1-1.3-0.1c-0.7,0-1.1,0.1-1.4,0.4s-0.4,0.8-0.4,1.6v1.2h2.5v1.7h-2.5v11.2H85.7z"/>
	<path d="M92,121.4v-12.9h2v2c0.5-0.9,1-1.5,1.4-1.8s0.9-0.4,1.4-0.4c0.7,0,1.5,0.2,2.2,0.7l-0.8,2c-0.5-0.3-1.1-0.5-1.6-0.5
		c-0.5,0-0.9,0.1-1.3,0.4c-0.4,0.3-0.7,0.7-0.8,1.2c-0.2,0.8-0.4,1.6-0.4,2.5v6.7H92z"/>
	<path d="M108.7,119.8c-0.8,0.7-1.6,1.2-2.3,1.5c-0.7,0.3-1.6,0.4-2.4,0.4c-1.4,0-2.5-0.3-3.3-1c-0.8-0.7-1.1-1.6-1.1-2.6
		c0-0.6,0.1-1.2,0.4-1.7s0.7-0.9,1.1-1.3s1-0.6,1.6-0.7c0.4-0.1,1.1-0.2,1.9-0.3c1.8-0.2,3.1-0.5,3.9-0.8c0-0.3,0-0.5,0-0.6
		c0-0.9-0.2-1.5-0.6-1.9c-0.6-0.5-1.4-0.7-2.5-0.7c-1,0-1.8,0.2-2.3,0.5s-0.9,1-1.1,1.9l-2.1-0.3c0.2-0.9,0.5-1.7,1-2.2
		c0.4-0.6,1.1-1,1.9-1.3c0.8-0.3,1.8-0.5,2.9-0.5c1.1,0,2,0.1,2.7,0.4c0.7,0.3,1.2,0.6,1.5,1c0.3,0.4,0.5,0.9,0.7,1.5
		c0.1,0.4,0.1,1,0.1,2v2.9c0,2,0,3.3,0.1,3.8c0.1,0.5,0.3,1.1,0.6,1.5h-2.3C108.9,120.9,108.8,120.4,108.7,119.8z M108.6,114.9
		c-0.8,0.3-2,0.6-3.6,0.8c-0.9,0.1-1.5,0.3-1.9,0.4c-0.4,0.2-0.7,0.4-0.9,0.7s-0.3,0.7-0.3,1c0,0.6,0.2,1.1,0.7,1.5
		c0.4,0.4,1.1,0.6,1.9,0.6c0.8,0,1.6-0.2,2.2-0.6c0.7-0.4,1.1-0.9,1.4-1.5c0.2-0.5,0.4-1.2,0.4-2.2V114.9z"/>
	<path d="M114.1,121.4v-12.9h2v1.8c0.4-0.6,0.9-1.1,1.6-1.5s1.4-0.6,2.3-0.6c1,0,1.7,0.2,2.3,0.6c0.6,0.4,1,0.9,1.3,1.7
		c1-1.5,2.3-2.3,4-2.3c1.3,0,2.3,0.4,2.9,1.1c0.7,0.7,1,1.8,1,3.3v8.8h-2.2v-8.1c0-0.9-0.1-1.5-0.2-1.9c-0.1-0.4-0.4-0.7-0.8-0.9
		s-0.8-0.4-1.3-0.4c-0.9,0-1.7,0.3-2.3,0.9c-0.6,0.6-0.9,1.6-0.9,2.9v7.5h-2.2V113c0-1-0.2-1.7-0.5-2.2c-0.4-0.5-0.9-0.7-1.7-0.7
		c-0.6,0-1.2,0.2-1.7,0.5s-0.9,0.8-1.1,1.4c-0.2,0.6-0.4,1.5-0.4,2.7v6.7H114.1z"/>
	<path d="M143.6,117.2l2.3,0.3c-0.4,1.3-1,2.3-2,3.1s-2.2,1.1-3.7,1.1c-1.9,0-3.4-0.6-4.5-1.7c-1.1-1.2-1.7-2.8-1.7-4.9
		c0-2.2,0.6-3.8,1.7-5c1.1-1.2,2.6-1.8,4.3-1.8c1.7,0,3.1,0.6,4.2,1.8c1.1,1.2,1.6,2.8,1.6,4.9c0,0.1,0,0.3,0,0.6h-9.6
		c0.1,1.4,0.5,2.5,1.2,3.3c0.7,0.8,1.6,1.1,2.7,1.1c0.8,0,1.5-0.2,2-0.6C142.9,118.8,143.3,118.2,143.6,117.2z M136.5,113.7h7.2
		c-0.1-1.1-0.4-1.9-0.8-2.4c-0.7-0.8-1.6-1.3-2.7-1.3c-1,0-1.8,0.3-2.5,1C136.9,111.7,136.5,112.6,136.5,113.7z"/>
	<path d="M160.1,113.6l-11.8,5v-2.2l9.3-3.9l-9.3-3.8v-2.2l11.8,5V113.6z"/>
</g>
</svg>
