<?xml version="1.0" encoding="utf-8"?>
<!-- Generator: Adobe Illustrator 24.1.1, SVG Export Plug-In . SVG Version: 6.00 Build 0)  -->
<svg version="1.1" id="Layer_1" xmlns="http://www.w3.org/2000/svg" xmlns:xlink="http://www.w3.org/1999/xlink" x="0px" y="0px"
	 width="99.4px" height="99.4px" viewBox="0 0 99.4 99.4" style="enable-background:new 0 0 99.4 99.4;" xml:space="preserve">
<style type="text/css">
	.st0{fill:#FFFFFF;stroke:#000000;stroke-width:0.442;stroke-miterlimit:10;}
	.st1{enable-background:new    ;}
</style>
<rect x="0.2" y="0.2" class="st0" width="99" height="99"/>
<g class="st1">
	<path d="M16.1,49.2v-2l11.8-5v2.2l-9.3,3.8l9.3,3.9v2.2L16.1,49.2z"/>
	<path d="M30.9,41.7v-2.5h2.2v2.5H30.9z M30.9,57V44.1h2.2V57H30.9z"/>
	<path d="M36.4,57V44.1h2v1.8c0.4-0.6,0.9-1.1,1.6-1.5s1.4-0.6,2.3-0.6c1,0,1.7,0.2,2.3,0.6c0.6,0.4,1,0.9,1.3,1.7
		c1-1.5,2.3-2.3,4-2.3c1.3,0,2.3,0.4,2.9,1.1c0.7,0.7,1,1.8,1,3.3V57h-2.2v-8.1c0-0.9-0.1-1.5-0.2-1.9c-0.1-0.4-0.4-0.7-0.8-0.9
		c-0.4-0.2-0.8-0.4-1.3-0.4c-0.9,0-1.7,0.3-2.3,0.9c-0.6,0.6-0.9,1.6-0.9,2.9V57H44v-8.4c0-1-0.2-1.7-0.5-2.2
		c-0.4-0.5-0.9-0.7-1.7-0.7c-0.6,0-1.2,0.2-1.7,0.5s-0.9,0.8-1.1,1.4c-0.2,0.6-0.4,1.5-0.4,2.7V57H36.4z"/>
	<path d="M56.7,58.1l2.1,0.3c0.1,0.7,0.3,1.1,0.7,1.4c0.5,0.4,1.3,0.6,2.2,0.6c1,0,1.8-0.2,2.3-0.6s0.9-1,1.1-1.7
		c0.1-0.4,0.2-1.4,0.2-2.8c-1,1.1-2.1,1.7-3.6,1.7c-1.8,0-3.1-0.6-4.1-1.9c-1-1.3-1.5-2.8-1.5-4.6c0-1.2,0.2-2.4,0.7-3.4
		c0.4-1,1.1-1.8,1.9-2.4c0.8-0.6,1.8-0.8,3-0.8c1.5,0,2.8,0.6,3.8,1.8v-1.6h2v11.1c0,2-0.2,3.4-0.6,4.3c-0.4,0.8-1.1,1.5-1.9,2
		c-0.9,0.5-2,0.7-3.3,0.7c-1.5,0-2.8-0.3-3.7-1C57.1,60.5,56.6,59.5,56.7,58.1z M58.5,50.3c0,1.7,0.3,2.9,1,3.7s1.5,1.2,2.5,1.2
		c1,0,1.8-0.4,2.5-1.2c0.7-0.8,1-2,1-3.6c0-1.6-0.3-2.8-1-3.6c-0.7-0.8-1.5-1.2-2.5-1.2c-1,0-1.8,0.4-2.5,1.2
		C58.8,47.6,58.5,48.8,58.5,50.3z"/>
	<path d="M82.4,49.2l-11.8,5v-2.2l9.3-3.9l-9.3-3.8v-2.2l11.8,5V49.2z"/>
</g>
</svg>
