<?xml version="1.0" encoding="utf-8"?>
<!-- Generator: Adobe Illustrator 24.1.1, SVG Export Plug-In . SVG Version: 6.00 Build 0)  -->
<svg version="1.1" id="Layer_1" xmlns="http://www.w3.org/2000/svg" xmlns:xlink="http://www.w3.org/1999/xlink" x="0px" y="0px"
	 width="164px" height="26px" viewBox="0 0 164 26" style="enable-background:new 0 0 164 26;" xml:space="preserve">
<style type="text/css">
	.st0{fill:#00FFFF;}
	.st1{fill:#FF4FC6;}
	.st2{fill:#FFFFFF;}
</style>
<g>
	<path class="st0" d="M33.6,25.7L28,14.6c-0.1-0.1-0.1-0.1-0.3-0.1h-4.7l-1.9,2c-0.1,0,4.6-0.1,5.3-0.1c0.1,0,0.1,0.1,0.3,0.1l3.4,7
		c0.1,0.1-0.1,0.3-0.3,0.3H17.6h-1.7H3.6c-0.1,0-0.3-0.1-0.3-0.3l3.4-7c0.1,0,0.1,0,0.1,0c0.6,0,5.3,0.1,5.3,0.1l-1.9-2.2H5.6
		c-0.1,0-0.1,0.1-0.3,0.1L0,25.7C-0.1,25.8,0.2,26,0.3,26h15.8h1.8h15.8C33.6,25.8,33.7,25.7,33.6,25.7z"/>
	<path class="st1" d="M16.8,0c-4.2,0-7.6,3.4-7.6,7.6c0,1.4,0.5,2.8,1.1,4.1c1,1.8,2.4,2.9,3.4,4.1c1.1,1.5,2.4,3.9,2.8,4.5
		c0.1,0.1,0.1,0.3,0.3,0.3c0.3,0.1,0.3-0.1,0.4-0.3c0.4-0.6,1.5-3.1,2.8-4.5c0.8-1.1,2.4-2.2,3.4-4.1c0.8-1.1,1.3-2.4,1.3-3.9
		C24.5,3.4,21.2,0,16.8,0z M16.8,11.7c-2.2,0-4.1-1.8-4.1-4.1s1.8-4.1,4.1-4.1s4.1,1.8,4.1,4.1S19,11.7,16.8,11.7z"/>
</g>
<g>
	<path class="st2" d="M39.7,21.9h-3.4V5h9.9V8h-6.1v4.5H46v2.9h-5.9C39.7,15.4,39.7,21.9,39.7,21.9z"/>
	<path class="st2" d="M56.5,8.5c0.3,0,0.4,0,0.6,0c0.3,0,0.4,0,0.5,0.1L57.3,12c-0.1,0-0.3-0.1-0.4-0.1c-0.1,0-0.4,0-0.5,0
		c-0.4,0-1,0.1-1.4,0.3c-0.4,0.1-0.9,0.3-1.1,0.5c-0.4,0.3-0.6,0.5-0.9,1.1c-0.5,0.5-0.5,1.1-0.5,1.5V22H49V9h2.8l0.5,2.2h0.4
		c0.3-0.4,0.5-0.9,1-1.3c0.4-0.4,0.9-0.6,1.4-0.9C55.4,8.5,55.9,8.5,56.5,8.5z"/>
	<path class="st2" d="M65.4,8.5c1.3,0,2.4,0.3,3.2,0.6c0.9,0.5,1.4,1.1,1.9,1.9c0.5,0.9,0.9,1.9,0.9,3.3V16H63c0,1.1,0.4,1.8,1,2.4
		c0.5,0.5,1.4,0.9,2.4,0.9c0.9,0,1.5-0.1,2.4-0.3c0.6-0.3,1.4-0.4,2.2-0.9v2.7c-0.6,0.3-1.4,0.5-2,0.6c-0.6,0.3-1.5,0.3-2.5,0.3
		c-1.4,0-2.4-0.3-3.4-0.9c-1-0.4-1.8-1.3-2.4-2.2c-0.5-1.1-0.9-2.4-0.9-3.8s0.3-2.9,0.9-3.9c0.5-1.1,1.3-1.8,2.2-2.4
		C63.3,9,64.3,8.5,65.4,8.5z M65.4,11.2c-0.6,0-1.3,0.3-1.7,0.6c-0.4,0.4-0.9,1.1-0.9,2H68c0-0.5-0.1-1.1-0.3-1.4
		c-0.3-0.4-0.4-0.9-0.9-1C66.6,11.2,66.2,11.2,65.4,11.2z"/>
	<path class="st2" d="M79.7,8.5c1.3,0,2.4,0.3,3.2,0.6c0.9,0.4,1.4,1.1,1.9,1.9c0.5,0.9,0.9,1.9,0.9,3.3V16h-8.4
		c0,1.1,0.4,1.8,1,2.4c0.5,0.6,1.4,0.9,2.4,0.9c0.9,0,1.5-0.1,2.4-0.3c0.6-0.3,1.4-0.4,2.2-0.9v2.7c-0.6,0.3-1.4,0.5-2,0.6
		c-0.6,0.3-1.5,0.3-2.5,0.3c-1.4,0-2.4-0.3-3.4-0.9c-1-0.4-1.8-1.3-2.4-2.2c-0.5-1-0.9-2.4-0.9-3.8s0.3-2.9,0.9-3.9
		c0.5-1.1,1.3-1.8,2.2-2.4C77.4,9,78.5,8.5,79.7,8.5z M79.7,11.2c-0.6,0-1.3,0.3-1.7,0.6c-0.4,0.4-0.9,1.1-0.9,2h5.1
		c0-0.5-0.1-1.1-0.3-1.4c-0.3-0.4-0.4-0.9-0.9-1C80.8,11.2,80.2,11.2,79.7,11.2z"/>
	<path class="st2" d="M91.9,21.9h-3.4V3.7h3.4V21.9z"/>
	<path class="st2" d="M101.2,8.5c1.8,0,3.2,0.4,4.1,1.1c0.9,0.6,1.4,1.8,1.4,3.4v8.8h-2.5l-0.5-1.8h-0.1c-0.4,0.4-0.9,0.9-1.1,1.1
		c-0.4,0.3-0.9,0.4-1.4,0.6c-0.4,0.1-1.1,0.3-1.8,0.3c-0.9,0-1.4-0.3-2-0.4c-0.6-0.1-1.1-0.9-1.4-1.4c-0.4-0.5-0.5-1.4-0.5-2.4
		c0-1.4,0.4-2.4,1.4-3.2c1-0.6,2.4-1.1,4.5-1.1l2.4-0.1V13c0-0.6-0.3-1.3-0.5-1.4c-0.5,0-1.1-0.1-1.5-0.1c-0.6,0-1.3,0.1-1.8,0.3
		c-0.5,0.3-1.3,0.4-1.8,0.6l-1.4-2.5c0.6-0.4,1.4-0.6,2.4-0.9C99.4,8.5,100.4,8.5,101.2,8.5z M103.2,16h-1.4c-1.1,0-1.9,0.3-2.4,0.6
		c-0.4,0.4-0.6,0.9-0.6,1.4c0,0.5,0.3,1,0.4,1.1c0.3,0.1,0.9,0.4,1.3,0.4c0.9,0,1.4-0.3,1.9-0.6c0.5-0.4,0.9-1.1,0.9-1.8V16
		L103.2,16z"/>
	<path class="st2" d="M118,8.5c1.4,0,2.5,0.4,3.3,1.1c0.6,0.6,1.4,1.9,1.4,3.6v8.5h-3.4v-7.6c0-1-0.3-1.5-0.4-2
		c-0.3-0.4-0.9-0.9-1.5-0.9c-1.1,0-1.8,0.4-2.4,1.1c-0.4,0.9-0.5,1.8-0.5,3.3v6.1h-3.7V8.7h2.8l0.4,1.5h0.3c0.3-0.4,0.6-0.9,1.1-1.1
		c0.4-0.3,0.9-0.4,1.4-0.6C116.8,8.5,117.2,8.5,118,8.5z"/>
	<path class="st2" d="M130.4,22.3c-1.4,0-2.7-0.5-3.4-1.7c-1-1.1-1.4-2.9-1.4-5.1c0-2.4,0.4-4.1,1.4-5.1c0.9-1.3,2.2-1.7,3.6-1.7
		c0.6,0,1.1,0.1,1.7,0.3c0.4,0.3,0.9,0.4,1.3,0.6c0.4,0.3,0.6,0.5,0.9,1h0.1c0-0.3-0.1-0.6-0.3-1.1c-0.1-0.4-0.1-1-0.1-1.4V3.7h3.4
		V22h-2.8l-0.6-1.7H134c-0.3,0.4-0.4,0.6-0.9,1c-0.4,0.3-0.9,0.5-1.3,0.6C131.5,22.1,130.9,22.3,130.4,22.3z M131.5,19.3
		c1,0,1.7-0.3,2-0.9c0.4-0.6,0.6-1.4,0.6-2.7v-0.4c0-1.3-0.3-2.4-0.5-2.9c-0.3-0.6-1.1-1.1-2.2-1.1c-0.9,0-1.4,0.4-1.8,1.1
		c-0.4,0.6-0.6,1.7-0.6,2.9c0,1.4,0.3,2.4,0.6,2.9C130.2,19,130.8,19.3,131.5,19.3z"/>
	<path class="st2" d="M146.7,8.5c1.3,0,2.4,0.3,3.2,0.6c0.9,0.5,1.4,1.1,1.9,1.9c0.4,0.9,0.9,1.9,0.9,3.3V16h-8.4
		c0,1.1,0.4,1.8,1,2.4c0.5,0.5,1.4,0.9,2.4,0.9c0.9,0,1.5-0.1,2.4-0.3c0.6-0.3,1.4-0.4,2.2-0.9v2.7c-0.6,0.3-1.4,0.5-2,0.6
		c-0.6,0.3-1.5,0.3-2.5,0.3c-1.4,0-2.4-0.3-3.4-0.9c-1.1-0.4-1.8-1.3-2.4-2.2c-0.5-1.1-0.9-2.4-0.9-3.8s0.3-2.9,0.9-3.9
		c0.5-1.1,1.3-1.8,2.2-2.4C144.4,9,145.6,8.5,146.7,8.5z M146.7,11.2c-0.6,0-1.3,0.3-1.7,0.6c-0.4,0.4-0.9,1.1-0.9,2h5.1
		c0-0.5-0.1-1.1-0.3-1.4c-0.3-0.3-0.4-0.9-0.9-1C147.9,11.2,147.5,11.2,146.7,11.2z"/>
	<path class="st2" d="M162.9,8.5c0.3,0,0.4,0,0.6,0c0.4,0,0.4,0,0.5,0.1l-0.3,3.3c-0.1,0-0.3-0.1-0.4-0.1s-0.4,0-0.5,0
		c-0.4,0-1,0.1-1.4,0.3c-0.4,0.1-0.9,0.3-1.1,0.5c-0.4,0.3-0.6,0.5-0.9,1.1c-0.3,0.4-0.3,1-0.3,1.5V22h-3.4V9h2.8l0.5,2.2h0.3
		c0.3-0.4,0.5-0.9,1-1.3c0.5-0.4,0.9-0.6,1.4-0.9C161.9,8.5,162.4,8.5,162.9,8.5z"/>
</g>
<g id="Layer_1_1_">
</g>
</svg>
