<?xml version="1.0" encoding="utf-8"?>
<!-- Generator: Adobe Illustrator 24.1.1, SVG Export Plug-In . SVG Version: 6.00 Build 0)  -->
<svg version="1.1" id="Layer_1" xmlns="http://www.w3.org/2000/svg" xmlns:xlink="http://www.w3.org/1999/xlink" x="0px" y="0px"
	 width="134.4px" height="134.4px" viewBox="0 0 134.4 134.4" style="enable-background:new 0 0 134.4 134.4;" xml:space="preserve"
	>
<style type="text/css">
	.st0{display:none;fill:#000022;}
	.st1{fill:#000022;}
	.st2{fill:#00FFFF;}
	.st3{fill:none;}
	.st4{fill:#FF4FC6;}
	.st5{fill:#FFFFFF;}
</style>
<circle class="st0" cx="31.3" cy="87.2" r="6.1"/>
<circle class="st0" cx="74" cy="97.6" r="6.1"/>
<g>
	<path class="st1" d="M121.6,104.8c0,12.8-10.1,23.1-22.8,23.1H31.9c-12.6,0-22.8-10.5-22.8-23.1V38.1C9.1,25.3,19.2,15,31.9,15
		h66.9c12.8,0,22.8,10.3,22.8,23.1C121.6,38.1,121.6,104.8,121.6,104.8z"/>
	<path class="st2" d="M98.8,129.7H31.9c-13.8,0-24.7-11.1-24.7-24.9V38.1c0-13.5,11.1-24.7,24.7-24.9h66.9
		c13.8,0,24.7,11.1,24.7,24.9v66.7C123.5,118.6,112.4,129.7,98.8,129.7z M31.9,17.1c-11.5,0-21,9.5-21,21v66.7
		c0,11.7,9.3,21.2,21,21.2h66.9c11.7,0,21-9.5,21-21.2V38.1c0-11.5-9.5-21-21-21H31.9z"/>
	<path class="st3" d="M101.3,82.8c0,8.6-7,31.1-15.4,31.1H40.5c-8.4,0-15.4-22.4-15.4-31.1V37.7c0-8.4,6.8-15.4,15.4-15.4l0,0h45.3
		c8.4,0,15.4,7,15.4,15.4L101.3,82.8L101.3,82.8z"/>
	<path class="st1" d="M9.5,92.9h112.2c0,0,2.3,24.9-8.4,29.6c0,0-3.9,5.8-18.7,5.6c-14.8-0.2-70-1.4-70-1.4s-14-6.8-15-16.9
		C8.8,104.2,8.8,98.7,9.5,92.9z"/>
	<rect x="9.5" y="89.2" class="st2" width="112.6" height="4.3"/>
	<path class="st4" d="M52.3,111.4v1.9l0,0l-8.9-13.8h-3.9v20.8h3.7v-13.8l9.1,13.8h3.9V99.5h-3.9V111.4z"/>
	<polygon class="st4" points="60.5,120.3 64.6,120.3 64.6,112.2 72.5,112.2 72.5,108.5 64.6,108.5 64.6,103.2 72.9,103.2 72.9,99.5 
		60.5,99.5 	"/>
	<polygon class="st4" points="76.4,99.5 76.4,103.2 82.3,103.2 82.3,120.3 86.2,120.3 86.2,103.2 92.2,103.2 92.2,99.5 	"/>
	<path class="st2" d="M98.8,129.7H31.9c-13.8,0-24.7-11.1-24.7-24.9V38.1c0-13.5,11.1-24.7,24.7-24.9h66.9
		c13.8,0,24.7,11.1,24.7,24.9v66.7C123.5,118.6,112.4,129.7,98.8,129.7z M31.9,17.1c-11.5,0-21,9.5-21,21v66.7
		c0,11.7,9.3,21.2,21,21.2h66.9c11.7,0,21-9.5,21-21.2V38.1c0-11.5-9.5-21-21-21H31.9z"/>
	<g>
		<path class="st2" d="M101.7,80.6l-12-24.1c-0.2-0.2-0.2-0.2-0.3-0.2H79.2L74.9,61c-0.2,0,10.1-0.2,11.7-0.2c0.2,0,0.2,0.2,0.3,0.2
			l7.5,15.4c0.2,0.2-0.2,0.5-0.3,0.5H67.2h-3.8h-27c-0.2,0-0.3-0.2-0.3-0.5L43.6,61c0.2-0.2,0.2-0.2,0.3-0.2
			c1.6,0,11.9,0.2,11.7,0.2l-4.3-4.5H40.9c-0.2,0-0.2,0.2-0.3,0.2L29,80.6c-0.2,0.2,0.2,0.5,0.3,0.5h34.1h3.8h34
			C101.7,81.1,101.9,80.9,101.7,80.6z"/>
		<path class="st4" d="M65.2,24.8c-9.1,0-16.6,7.5-16.6,16.6c0,3,0.9,6.1,2.4,8.6c2.3,3.8,5.4,6.3,7.3,8.6c2.6,3.3,5.3,8.4,6.1,9.9
			c0.2,0.2,0.2,0.3,0.5,0.3c0.3,0.2,0.7-0.2,0.8-0.3c0.8-1.4,3.3-6.7,6.1-9.9c1.9-2.4,5.3-4.8,7.3-8.6c1.8-2.4,2.8-5.3,2.8-8.4
			C82,32.3,74.4,24.8,65.2,24.8z M65.2,50.3c-4.8,0-8.6-3.8-8.6-8.6s3.8-8.6,8.6-8.6c4.8,0,8.6,3.8,8.6,8.6
			C74.1,46.4,70.1,50.3,65.2,50.3z"/>
	</g>
	<path class="st5" d="M81.7,48.1c0,0-6.5,0.8-8.7,6.3s-3,10-13.8,12.2c0,0-2,0.4,0.2,1.6s27.2,2.8,31.1-10c0,0-5.3,2.4-8.3-0.6
		C80,55,79.8,51.2,81.7,48.1z"/>
	<path class="st1" d="M81.7,48.1L81.7,48.1 M81.7,48.1c-1.8,2.8-1.6,6.7,0.6,9.3c0.8,0.8,2,1.4,3.2,1.6c1.6,0,3.2-0.2,4.9-0.8
		c-3.2,10.8-20.7,11.4-28,10.6c-1,0-2-0.2-3-0.6c-2.4-1.2-0.2-1.6-0.2-1.6c11-2.2,11.8-6.9,13.8-12.2C74.6,51.2,77.8,48.7,81.7,48.1
		 M81.9,46.1h-0.4c-0.8,0.2-7.7,1.2-10.2,7.3c-0.2,0.4-0.4,1-0.6,1.4c-1.8,4.5-3,7.9-12,9.7c-1.2,0.2-2.2,1-2.4,2.2
		c-0.2,1.2,0.6,2.2,2.2,3c0.2,0.2,1,0.6,3.7,0.8c8.9,1,26.6-0.4,30.1-12c0.2-0.8,0-1.4-0.6-2c-0.2-0.2-0.6-0.4-1-0.4s-0.6,0-1,0.2
		c-1.2,0.4-2.4,0.8-3.9,0.8c-0.8,0-1.6-0.4-2-1c-1.6-2-1.8-4.9-0.4-7.1c0.2-0.2,0.4-0.4,0.4-0.8C83.7,47.3,82.9,46.3,81.9,46.1z"/>
	<path class="st4" d="M115.8,12L84.3,45.5c0,0-4.9,5.7-1.4,10s7.9,2.4,11.2-0.8c3.2-3.2,30.1-40,30.1-40s2.8-4.9-0.4-6.5
		C120.5,6.5,119.4,7.5,115.8,12z"/>
	<path class="st1" d="M121.5,7.3c0.8,0.2,1.4,0.4,2.2,0.8c3.2,1.6,0.4,6.5,0.4,6.5s-26.6,36.8-29.9,40c-1.8,2-4.3,3.2-7.1,3.2
		c-1.6-0.2-3-1-4.1-2.4c-3.7-4.3,1.4-10,1.4-10l31.3-33.5C118.4,8.5,119.6,7.1,121.5,7.3 M121.7,4.8c-3-0.4-4.9,1.8-7.9,5.3
		L82.5,43.8c-2.4,2.6-5.3,8.5-1.4,13c1.4,1.8,3.5,3,5.7,3.2c3.5,0,6.7-1.4,8.9-4.1c3.2-3.2,27.4-36.6,30.1-40.4l0,0
		c1.2-2,1.6-4.5,1.2-6.7c-0.4-1.4-1.4-2.6-2.6-3.2C123.5,5.3,122.5,5.1,121.7,4.8z"/>
</g>
<rect class="st3" width="134.4" height="134.4"/>
</svg>
