<?xml version="1.0" encoding="utf-8"?>
<!-- Generator: Adobe Illustrator 24.1.1, SVG Export Plug-In . SVG Version: 6.00 Build 0)  -->
<svg version="1.1" id="Layer_1" xmlns="http://www.w3.org/2000/svg" xmlns:xlink="http://www.w3.org/1999/xlink" x="0px" y="0px"
	 width="134.4px" height="134.4px" viewBox="0 0 134.4 134.4" style="enable-background:new 0 0 134.4 134.4;" xml:space="preserve"
	>
<style type="text/css">
	.st0{display:none;fill:#000022;}
	.st1{fill:#000022;}
	.st2{fill:#00FFFF;}
	.st3{fill:#EC65BD;}
	.st4{fill:#FF4FC6;}
	.st5{fill:#FFDEF7;}
	.st6{fill:#AA007A;}
	.st7{fill:#FBF5F9;}
	.st8{fill:#FF79AE;}
	.st9{fill:#FFFFFF;}
	.st10{fill:#FAF8F9;}
	.st11{fill:url(#SVGID_1_);}
	.st12{fill:url(#SVGID_2_);}
	.st13{fill:url(#SVGID_3_);}
	.st14{fill:url(#SVGID_4_);}
	.st15{fill:url(#SVGID_5_);}
	.st16{fill:url(#SVGID_6_);}
	.st17{fill:#00B9ED;}
	.st18{fill:#0D0024;}
	.st19{fill:none;}
</style>
<circle class="st0" cx="28.1" cy="83.6" r="6.1"/>
<circle class="st0" cx="70.8" cy="94" r="6.1"/>
<g>
	<g>
		<ellipse class="st1" cx="65.5" cy="67.7" rx="56.6" ry="56"/>
		<path class="st2" d="M67.3,126.3c-32.6,0-59.2-26.6-59.2-59.2C8.1,34.5,34.7,8,67.3,8s59.1,26.6,59.1,59.1S99.9,126.3,67.3,126.3z
			 M67.3,13.2c-29.8,0-54,24.2-54,54c0,29.8,24.2,54,54,54c29.8,0,54-24.2,54-54C121.3,37.4,96.9,13.2,67.3,13.2z"/>
		<path class="st3" d="M68.3,75.5c-0.6,0-1-0.2-1.6-0.6L39.3,53.4c-1-0.8-1.2-2.4-0.4-3.4s2.4-1.2,3.4-0.4l25.8,20.2l28.2-31
			c1-1,2.4-1,3.4-0.2c1,1,1,2.4,0.2,3.4L70.1,74.7C69.7,75.3,69.1,75.5,68.3,75.5z"/>
		<path class="st2" d="M67.3,26.2c-2.4,0-4.2-1.8-4.2-4.2v-9c0-2.4,1.8-4.2,4.2-4.2s4.2,1.8,4.2,4.2v9
			C71.5,24.2,69.5,26.2,67.3,26.2z"/>
		<path class="st2" d="M67.3,126.3c-2.6,0-4.8-2.2-4.8-4.8v-10c0-2.6,2.2-4.8,4.8-4.8c2.6,0,4.8,2.2,4.8,4.8v10
			C71.9,124.3,69.9,126.3,67.3,126.3z"/>
		<g>
			<path class="st2" d="M26.1,67.1c0,2.4-1.8,4.2-4.2,4.2h-9c-2.4,0-4.2-1.8-4.2-4.2c0-2.3,1.8-4.1,4.2-4.1h9
				C24.3,63,26.1,65,26.1,67.1z"/>
			<path class="st2" d="M125.6,67.1c0,2.4-1.8,4.2-4.2,4.2h-9c-2.4,0-4.2-1.8-4.2-4.2c0-2.4,1.8-4.2,4.2-4.2h9
				C123.8,63,125.6,65,125.6,67.1z"/>
		</g>
	</g>
	<g>
		<path class="st4" d="M47.3,119.1H20.7c-0.6,0-1,0.4-1,1v4.8c0,0.6,0.4,1,1,1h26.6c0.6,0,1-0.4,1-1v-4.8
			C48.3,119.5,47.9,119.1,47.3,119.1z"/>
		<rect x="22.9" y="120.1" class="st5" width="3.8" height="5.8"/>
		<rect x="27.9" y="120.1" class="st5" width="2.2" height="5.8"/>
		<rect x="34.5" y="120.1" class="st6" width="11.2" height="5.8"/>
		<path class="st6" d="M47.5,125.9h-27l0,0l0,0H47.5C47.5,125.7,47.7,125.9,47.5,125.9C47.7,125.9,47.5,125.9,47.5,125.9z"/>
	</g>
	<g>
		<path class="st4" d="M44.7,112.5H17.9c-0.6,0-1,0.4-1,1v4.8c0,0.6,0.4,1,1,1h26.6c0.6,0,1-0.4,1-1v-4.8
			C45.5,112.9,45.1,112.5,44.7,112.5z"/>
		<rect x="20.1" y="113.3" class="st5" width="3.8" height="5.8"/>
		<rect x="25.3" y="113.3" class="st5" width="2.2" height="5.8"/>
		<rect x="31.7" y="113.3" class="st6" width="11.2" height="5.8"/>
		<path class="st6" d="M44.9,119.3H17.7l0,0l0,0H44.9C44.9,119.1,44.9,119.1,44.9,119.3L44.9,119.3z"/>
	</g>
	<g>
		<path class="st4" d="M44.7,105.7H17.9c-0.6,0-1,0.4-1,1v4.8c0,0.6,0.4,1,1,1h26.6c0.6,0,1-0.4,1-1v-4.8
			C45.5,106.3,45.1,105.7,44.7,105.7z"/>
		<rect x="20.1" y="106.7" class="st5" width="3.8" height="5.8"/>
		<rect x="25.3" y="106.7" class="st5" width="2.2" height="5.8"/>
		<rect x="31.7" y="106.7" class="st6" width="11.2" height="5.8"/>
		<path class="st6" d="M44.9,112.5H17.7l0,0l0,0H44.9C44.9,112.3,44.9,112.5,44.9,112.5L44.9,112.5z"/>
	</g>
	<g>
		<path class="st4" d="M3.8,123.1l9.2-25c0.2-0.4,0.8-0.8,1.2-0.6l4.6,1.6c0.4,0.2,0.8,0.8,0.6,1.2l-9.2,25
			c-0.2,0.6-0.8,0.8-1.2,0.6l-4.6-1.6C4,124.1,3.6,123.5,3.8,123.1z"/>
		
			<rect x="13.3" y="100.3" transform="matrix(0.3434 -0.9392 0.9392 0.3434 -86.9935 82.0163)" class="st5" width="3.8" height="5.8"/>
		
			<rect x="12.5" y="104.2" transform="matrix(0.3427 -0.9394 0.9394 0.3427 -91.6813 83.1838)" class="st5" width="2.2" height="5.8"/>
		
			<rect x="4.2" y="114.5" transform="matrix(0.3434 -0.9392 0.9392 0.3434 -103.8306 86.3063)" class="st6" width="11.2" height="5.8"/>
		<path class="st6" d="M9.9,125.7L9.9,125.7C9.9,125.5,9.9,125.5,9.9,125.7l9.2-25.6c0,0,0,0,0.2,0c0,0,0,0,0,0.2L9.9,125.7
			C10.1,125.5,10.1,125.7,9.9,125.7z"/>
	</g>
	<g>
		<path class="st4" d="M24.9,123.9L24.9,123.9l1-0.6c0,0,0,0-0.2-0.2L24.9,123.9C24.7,123.7,24.7,123.9,24.9,123.9
			C24.7,123.9,24.9,123.9,24.9,123.9z"/>
		<path class="st4" d="M25.5,124.3L25.5,124.3L25.5,124.3l1-0.4c0,0-0.2,0-0.2-0.2L25.5,124.3C25.5,124.3,25.3,124.3,25.5,124.3z"/>
		<path class="st4" d="M27.1,124.3l-0.8,0.4c0,0,0,0,0,0.2l0,0l0,0l1-0.6L27.1,124.3L27.1,124.3z"/>
	</g>
	<g>
		<path class="st4" d="M120.7,118.7H94.1c-0.6,0-1,0.4-1,1v4.8c0,0.6,0.4,1,1,1h26.6c0.6,0,1-0.4,1-1v-4.8
			C121.7,119.1,121.3,118.7,120.7,118.7z"/>
		<rect x="96.3" y="119.7" class="st5" width="3.8" height="5.8"/>
		<rect x="101.3" y="119.7" class="st5" width="2.2" height="5.8"/>
		<rect x="107.9" y="119.7" class="st6" width="11.2" height="5.8"/>
		<path class="st6" d="M120.9,125.5h-27l0,0l0,0H120.9C120.9,125.3,121.1,125.5,120.9,125.5C121.1,125.5,120.9,125.5,120.9,125.5z"
			/>
	</g>
	<g>
		<path class="st4" d="M120.7,112.1H94.1c-0.6,0-1,0.4-1,1v4.8c0,0.6,0.4,1,1,1h26.6c0.6,0,1-0.4,1-1v-4.8
			C121.7,112.5,121.3,112.1,120.7,112.1z"/>
		<rect x="96.3" y="112.9" class="st5" width="3.8" height="5.8"/>
		<rect x="101.3" y="112.9" class="st5" width="2.2" height="5.8"/>
		<rect x="107.9" y="112.9" class="st6" width="11.2" height="5.8"/>
		<path class="st6" d="M120.9,118.9h-27l0,0l0,0H120.9C120.9,118.7,121.1,118.7,120.9,118.9C121.1,118.9,120.9,118.9,120.9,118.9z"
			/>
	</g>
	<g>
		<path class="st4" d="M120.7,105.5H94.1c-0.6,0-1,0.4-1,1v4.8c0,0.6,0.4,1,1,1h26.6c0.6,0,1-0.4,1-1v-4.8
			C121.7,105.9,121.3,105.5,120.7,105.5z"/>
		<rect x="96.3" y="106.3" class="st5" width="3.8" height="5.8"/>
		<rect x="101.3" y="106.3" class="st5" width="2.2" height="5.8"/>
		<rect x="107.9" y="106.3" class="st6" width="11.2" height="5.8"/>
		<path class="st6" d="M120.9,112.1h-27l0,0l0,0H120.9C120.9,112.1,121.1,112.1,120.9,112.1C121.1,112.1,120.9,112.1,120.9,112.1z"
			/>
	</g>
	<g>
		<path class="st4" d="M120.7,98.7H94.1c-0.6,0-1,0.4-1,1v4.8c0,0.6,0.4,1,1,1h26.6c0.6,0,1-0.4,1-1v-4.8
			C121.7,99.1,121.3,98.7,120.7,98.7z"/>
		<rect x="96.3" y="99.5" class="st5" width="3.8" height="5.8"/>
		<rect x="101.3" y="99.5" class="st5" width="2.2" height="5.8"/>
		<rect x="107.9" y="99.5" class="st6" width="11.2" height="5.8"/>
		<path class="st6" d="M120.9,105.5h-27l0,0l0,0H120.9C120.9,105.3,121.1,105.3,120.9,105.5C121.1,105.5,120.9,105.5,120.9,105.5z"
			/>
	</g>
	<g>
		<path class="st4" d="M120.7,92.1H94.1c-0.6,0-1,0.4-1,1v4.8c0,0.6,0.4,1,1,1h26.6c0.6,0,1-0.4,1-1v-4.8
			C121.7,92.5,121.3,92.1,120.7,92.1z"/>
		<rect x="96.3" y="92.9" class="st5" width="3.8" height="5.8"/>
		<rect x="101.3" y="92.9" class="st5" width="2.2" height="5.8"/>
		<rect x="107.9" y="92.9" class="st6" width="11.2" height="5.8"/>
		<path class="st6" d="M120.9,98.9h-27l0,0l0,0H120.9C120.9,98.7,121.1,98.7,120.9,98.9C121.1,98.7,120.9,98.9,120.9,98.9z"/>
	</g>
	<g>
		<path class="st4" d="M123.4,85.3H96.9c-0.6,0-1,0.4-1,1v4.8c0,0.6,0.4,1,1,1h26.6c0.6,0,1-0.4,1-1v-4.8
			C124.2,85.7,123.8,85.3,123.4,85.3z"/>
		<rect x="98.9" y="86.3" class="st5" width="3.8" height="5.8"/>
		<rect x="104.1" y="86.3" class="st5" width="2.2" height="5.8"/>
		<rect x="110.5" y="86.3" class="st6" width="11.2" height="5.8"/>
		<path class="st6" d="M123.6,92.1H96.5l0,0l0,0H123.6C123.6,91.9,123.6,91.9,123.6,92.1L123.6,92.1z"/>
	</g>
	<g>
		<path class="st4" d="M120.7,78.7H94.1c-0.6,0-1,0.4-1,1v4.8c0,0.6,0.4,1,1,1h26.6c0.6,0,1-0.4,1-1v-4.8
			C121.7,79.1,121.3,78.7,120.7,78.7z"/>
		<rect x="96.3" y="79.5" class="st5" width="3.8" height="5.8"/>
		<rect x="101.3" y="79.5" class="st5" width="2.2" height="5.8"/>
		<rect x="107.9" y="79.5" class="st6" width="11.2" height="5.8"/>
		<path class="st6" d="M120.9,85.5h-27l0,0l0,0H120.9C120.9,85.3,121.1,85.3,120.9,85.5C121.1,85.3,120.9,85.5,120.9,85.5z"/>
	</g>
	<g>
		<path class="st4" d="M120.7,71.9H94.1c-0.6,0-1,0.4-1,1v4.8c0,0.6,0.4,1,1,1h26.6c0.6,0,1-0.4,1-1v-4.8
			C121.7,72.3,121.3,71.9,120.7,71.9z"/>
		<rect x="96.3" y="72.9" class="st5" width="3.8" height="5.8"/>
		<rect x="101.3" y="72.9" class="st5" width="2.2" height="5.8"/>
		<rect x="107.9" y="72.9" class="st6" width="11.2" height="5.8"/>
		<path class="st6" d="M120.9,78.7h-27l0,0l0,0H120.9C120.9,78.5,121.1,78.7,120.9,78.7C121.1,78.7,120.9,78.7,120.9,78.7z"/>
	</g>
	<g>
		<path class="st4" d="M130.6,124.3l-2.4-26.6c0-0.6-0.4-0.8-1-0.8l-4.8,0.4c-0.6,0-0.8,0.4-0.8,1l2.4,26.6c0,0.6,0.4,0.8,1,0.8
			l4.8-0.4C130.2,125.3,130.6,124.9,130.6,124.3z"/>
		
			<rect x="122" y="100.3" transform="matrix(0.9961 -8.820025e-02 8.820025e-02 0.9961 -8.5307 11.4162)" class="st5" width="5.8" height="3.8"/>
		
			<rect x="122.4" y="105.3" transform="matrix(0.9961 -8.770410e-02 8.770410e-02 0.9961 -8.8525 11.4013)" class="st5" width="5.8" height="2.2"/>
		
			<rect x="123.3" y="111.9" transform="matrix(0.9961 -8.849790e-02 8.849790e-02 0.9961 -9.9061 11.6315)" class="st6" width="5.8" height="11.2"/>
		<path class="st6" d="M124,125.3C124,125.3,123.8,125.3,124,125.3l-2.4-27l0,0l0,0L124,125.3L124,125.3L124,125.3z"/>
	</g>
	<g>
		<path class="st4" d="M77.1,122.3l12.4-23.6c0.2-0.4,0.8-0.6,1.2-0.4l4.2,2.2c0.4,0.2,0.6,0.8,0.4,1.2l-12.4,23.8
			c-0.2,0.4-0.8,0.6-1.2,0.4l-4.2-2.2C76.9,123.3,76.9,122.7,77.1,122.3z"/>
		
			<rect x="88.8" y="101.3" transform="matrix(0.4644 -0.8856 0.8856 0.4644 -43.6791 136.1501)" class="st5" width="3.8" height="5.8"/>
		
			<rect x="87.8" y="104.9" transform="matrix(0.4647 -0.8855 0.8855 0.4647 -47.8482 136.3942)" class="st5" width="2.2" height="5.8"/>
		
			<rect x="78.1" y="114.8" transform="matrix(0.4644 -0.8856 0.8856 0.4644 -59.3945 137.199)" class="st6" width="11.2" height="5.8"/>
		<path class="st6" d="M82.9,125.7L82.9,125.7C82.7,125.7,82.7,125.7,82.9,125.7l12.4-24.2c0,0,0,0,0.2,0c0,0,0,0,0,0.2L82.9,125.7
			L82.9,125.7z"/>
	</g>
	<path class="st4" d="M81.5,125.5l0.8,0.4l0,0l0,0c0,0,0,0,0-0.2L81.5,125.5C81.7,125.5,81.7,125.5,81.5,125.5z"/>
	<g>
		<path class="st7" d="M79.5,107.6c0-1-0.1-2-0.3-2.9c-0.2-0.9-0.5-1.8-0.8-2.6c-0.4-0.9-0.8-1.8-1.4-2.6c-0.6-0.9-1.2-1.7-2-2.4
			c-0.7-0.7-1.5-1.3-2.3-1.9c-0.7-0.5-1.6-1-2.4-1.3c-0.2-0.1-0.4-0.2-0.6-0.2c-0.1,0-0.1,0-0.2-0.1c-0.1-0.1-0.3-0.1-0.4-0.1
			c-0.1,0-0.1-0.1-0.2-0.1c-0.2-0.1-0.4-0.1-0.6-0.2l-0.1,0c-0.3-0.1-0.5-0.1-0.7-0.2C67.2,93,67,93,66.7,92.9l0,0l0,0l0,0l0,0
			c-0.2,0-0.4-0.1-0.6-0.1c-0.1,0-0.1,0-0.2,0c-0.2,0-0.3,0-0.5,0c-0.1,0-0.1,0-0.2,0c-0.2,0-0.5,0-0.7,0c-1,0-2,0.1-2.9,0.3
			c-0.9,0.2-1.8,0.5-2.6,0.8c-0.9,0.4-1.8,0.8-2.6,1.4c-0.9,0.6-1.7,1.2-2.4,2c-0.7,0.7-1.3,1.5-1.9,2.3c-0.5,0.7-1,1.6-1.3,2.4
			c-0.4,0.9-0.7,1.8-0.9,2.8c-0.2,1-0.3,2.1-0.3,3.1c0,1,0.1,2,0.3,2.9c0.2,0.9,0.5,1.8,0.8,2.6c0.4,0.9,0.8,1.8,1.4,2.6
			c0.6,0.9,1.2,1.7,2,2.4c0.7,0.7,1.5,1.3,2.3,1.9c0.7,0.5,1.6,1,2.4,1.3c0.2,0.1,0.4,0.2,0.6,0.2c0.1,0,0.1,0,0.2,0.1
			c0.1,0.1,0.3,0.1,0.4,0.1c0.1,0,0.1,0.1,0.2,0.1c0.2,0.1,0.4,0.1,0.6,0.2c0.3,0.1,0.5,0.1,0.8,0.2c1,0.2,2.1,0.3,3.1,0.3
			c1,0,2-0.1,2.9-0.3c0.9-0.2,1.8-0.5,2.6-0.8c0.9-0.4,1.8-0.8,2.6-1.4c0.9-0.6,1.7-1.2,2.4-2c0.7-0.7,1.3-1.5,1.9-2.3
			c0.5-0.7,0.9-1.6,1.3-2.4c0.4-0.9,0.7-1.8,0.9-2.8C79.4,109.7,79.5,108.6,79.5,107.6z M69.9,93.7c0,0-0.1,0-0.1,0
			C69.8,93.7,69.8,93.7,69.9,93.7z M69.4,93.6c-0.1,0-0.2-0.1-0.3-0.1C69.2,93.5,69.3,93.5,69.4,93.6z M68.8,93.4
			c-0.2-0.1-0.4-0.1-0.6-0.2C68.5,93.2,68.6,93.3,68.8,93.4z M66.6,92.9c-0.2,0-0.4-0.1-0.6-0.1C66.2,92.8,66.4,92.9,66.6,92.9z
			 M65.7,92.8c-0.1,0-0.2,0-0.4,0C65.5,92.8,65.6,92.8,65.7,92.8z M65,92.7c0,0-0.1,0-0.1,0C64.9,92.7,65,92.8,65,92.7z M59.1,121.7
			c0,0,0.1,0,0.1,0C59.2,121.7,59.2,121.7,59.1,121.7z M59.6,121.9c0.1,0,0.2,0.1,0.3,0.1C59.8,122,59.7,121.9,59.6,121.9z
			 M60.2,122.1c0.2,0.1,0.4,0.1,0.5,0.2C60.5,122.2,60.4,122.1,60.2,122.1z"/>
		<path class="st7" d="M50,110.8c-0.2-0.9-0.3-1.9-0.3-2.9c0-0.4,0-0.8,0.1-1.2l-3.5-0.3c0,0.5-0.1,1-0.1,1.5c0,1.2,0.1,2.4,0.4,3.6
			c0,0.2,0.1,0.4,0.2,0.6l3.4-0.8C50.1,111.1,50,111,50,110.8z"/>
		<path class="st7" d="M77.5,120.7l-2.5-2.5c-0.7,0.7-1.5,1.4-2.3,1.9c-0.4,0.3-0.9,0.6-1.4,0.8l1.6,3.1c0.6-0.3,1.2-0.7,1.8-1
			C75.6,122.4,76.6,121.6,77.5,120.7z"/>
		<path class="st7" d="M56.3,120.2c-0.6-0.4-1.2-0.8-1.7-1.3l-2.4,2.6c0.7,0.6,1.4,1.2,2.1,1.6c0.9,0.6,1.8,1.1,2.7,1.5l1.4-3.2
			C57.8,121,57,120.6,56.3,120.2z"/>
		<path class="st7" d="M79,104.8c0.2,0.9,0.3,1.9,0.3,2.9c0,0.4,0,0.8-0.1,1.2l3.5,0.3c0-0.5,0.1-1,0.1-1.5c0-1.2-0.1-2.4-0.4-3.6
			c0-0.2-0.1-0.4-0.2-0.6l-3.4,0.8C78.9,104.5,78.9,104.6,79,104.8z"/>
		<path class="st7" d="M72.6,95.4c0.6,0.4,1.2,0.8,1.7,1.3l2.4-2.6c-0.7-0.6-1.4-1.1-2.1-1.6c-0.9-0.6-1.8-1.1-2.7-1.5l-1.4,3.2
			C71.2,94.6,71.9,95,72.6,95.4z"/>
		<path class="st4" d="M82.7,109.2l-3.5-0.3l0,0c0-0.4,0-0.8,0.1-1.2c0-1-0.1-1.9-0.3-2.9c0-0.2-0.1-0.4-0.1-0.5l0,0l3.4-0.8
			c-0.2-0.9-0.5-1.7-0.8-2.6c-0.5-1.1-1-2.2-1.7-3.2c-0.7-1.1-1.5-2-2.4-2.9c-0.2-0.2-0.4-0.4-0.7-0.6l-2.4,2.6l0,0
			c-0.5-0.5-1.1-0.9-1.7-1.3c-0.7-0.5-1.4-0.8-2.2-1.2l1.4-3.2c-0.1,0-0.2-0.1-0.2-0.1c-1.1-0.5-2.2-0.8-3.4-1.1
			c-1.3-0.3-2.5-0.4-3.8-0.4c-1.2,0-2.4,0.1-3.6,0.4c-1.1,0.2-2.2,0.6-3.2,1c-0.5,0.2-1,0.4-1.4,0.7l1.6,3.1c-0.5,0.2-1,0.5-1.4,0.8
			c-0.8,0.6-1.7,1.2-2.4,1.9l0,0l-2.5-2.5l-0.1,0c-0.9,0.8-1.6,1.8-2.3,2.8c-0.6,0.9-1.1,1.9-1.6,3c-0.5,1.1-0.8,2.2-1.1,3.4
			c-0.2,0.7-0.3,1.5-0.3,2.3l3.5,0.3l0,0c0,0.4,0,0.8-0.1,1.2c0,1,0.1,1.9,0.3,2.9c0,0.2,0.1,0.4,0.1,0.5l-3.4,0.8
			c0.2,0.9,0.5,1.7,0.8,2.6c0.5,1.1,1,2.2,1.7,3.2c0.7,1.1,1.5,2,2.4,2.9c0.2,0.2,0.4,0.4,0.7,0.6l2.4-2.6l0,0
			c0.5,0.5,1.1,0.9,1.7,1.3c0.7,0.5,1.6,0.9,2.4,1.3c-0.1,0-0.1-0.1-0.2-0.1l-1.4,3.2c0.1,0,0.2,0.1,0.2,0.1
			c1.1,0.5,2.2,0.8,3.4,1.1c1.3,0.3,2.5,0.4,3.8,0.4c1.2,0,2.4-0.1,3.6-0.4c1.1-0.2,2.2-0.6,3.2-1c0.5-0.2,1-0.4,1.4-0.7l-1.6-3.1
			c0.5-0.2,1-0.5,1.4-0.8c0.8-0.6,1.6-1.2,2.3-1.9l2.5,2.5l0,0c0.8-0.8,1.6-1.8,2.3-2.8c0.6-0.9,1.1-1.9,1.6-3
			c0.5-1.1,0.8-2.2,1.1-3.4C82.6,110.7,82.7,109.9,82.7,109.2z M78.7,103.8c0-0.1,0-0.1,0-0.2C78.7,103.7,78.7,103.8,78.7,103.8z
			 M78.4,102.8c-0.1-0.2-0.1-0.4-0.2-0.6C78.2,102.4,78.3,102.6,78.4,102.8z M78.6,103.3c0-0.1-0.1-0.2-0.1-0.3
			C78.5,103.1,78.5,103.2,78.6,103.3z M58.9,94.1c-0.2,0.1-0.4,0.2-0.6,0.3C58.5,94.3,58.7,94.2,58.9,94.1z M49.8,106.2L49.8,106.2
			L49.8,106.2z M49.9,105.3c0,0,0,0.1,0,0.1C49.9,105.4,49.9,105.3,49.9,105.3z M49.8,105.7C49.8,105.7,49.8,105.8,49.8,105.7
			C49.8,105.8,49.8,105.7,49.8,105.7z M50.2,111.7c0,0.1,0,0.1,0,0.2C50.3,111.9,50.2,111.8,50.2,111.7z M50.6,112.8
			c0.1,0.2,0.1,0.4,0.2,0.6C50.7,113.2,50.6,113,50.6,112.8z M50.4,112.3c0,0.1,0.1,0.2,0.1,0.3C50.4,112.5,50.4,112.4,50.4,112.3z
			 M70.1,121.5c0.2-0.1,0.4-0.2,0.6-0.3C70.5,121.3,70.3,121.4,70.1,121.5z M73.6,116.8c-0.6,0.6-1.3,1.2-2.1,1.7
			c-0.7,0.5-1.5,0.9-2.2,1.2c-0.7,0.3-1.5,0.5-2.3,0.7c-0.8,0.2-1.7,0.3-2.5,0.3c-0.9,0-1.8-0.1-2.7-0.3c-0.8-0.2-1.7-0.4-2.4-0.7
			c-0.7-0.3-1.4-0.7-2.1-1.1c-0.7-0.5-1.4-1-2-1.6c-0.6-0.6-1.2-1.3-1.7-2.1c-0.5-0.7-0.9-1.5-1.2-2.2c-0.3-0.7-0.5-1.5-0.7-2.3
			c-0.2-0.8-0.3-1.7-0.3-2.5c0-0.9,0.1-1.8,0.3-2.7c0.2-0.8,0.4-1.7,0.7-2.4c0.3-0.7,0.7-1.4,1.1-2.1c0.5-0.7,1-1.4,1.6-2
			c0.6-0.6,1.3-1.2,2.1-1.7c0.7-0.5,1.5-0.9,2.2-1.2c0.7-0.3,1.5-0.5,2.3-0.7c0.8-0.2,1.7-0.3,2.5-0.3c0.9,0,1.8,0.1,2.7,0.3
			c0.8,0.2,1.7,0.4,2.4,0.7c0.7,0.3,1.4,0.7,2.1,1.1c0.7,0.5,1.4,1,2,1.6c0.6,0.6,1.2,1.3,1.7,2.1c0.5,0.7,0.9,1.5,1.2,2.2
			c0.3,0.7,0.5,1.5,0.7,2.3c0.2,0.8,0.3,1.7,0.3,2.5c0,0.9-0.1,1.8-0.3,2.7c-0.2,0.8-0.4,1.7-0.7,2.4c-0.3,0.7-0.7,1.4-1.1,2.1
			C74.8,115.6,74.2,116.2,73.6,116.8z M79.2,109.3L79.2,109.3L79.2,109.3z M79.1,109.8C79.1,109.8,79.1,109.8,79.1,109.8
			C79.1,109.8,79.1,109.8,79.1,109.8z M79.1,110.2C79.1,110.2,79.1,110.3,79.1,110.2C79.1,110.3,79.1,110.2,79.1,110.2z"/>
		<path class="st7" d="M56.3,95.5c0.4-0.3,0.9-0.6,1.4-0.8l-1.6-3.1c-0.6,0.3-1.2,0.7-1.8,1c-1,0.7-2,1.5-2.9,2.4l2.5,2.5
			C54.7,96.7,55.5,96,56.3,95.5z"/>
		<path class="st8" d="M77.1,107.6c0-0.8-0.1-1.6-0.2-2.5c-0.2-0.8-0.4-1.5-0.7-2.2c-0.3-0.8-0.7-1.5-1.2-2.2c-0.5-0.7-1-1.4-1.7-2
			c-0.6-0.6-1.2-1.1-1.9-1.6c-0.6-0.4-1.3-0.8-2.1-1.1c-0.7-0.3-1.5-0.6-2.4-0.7c-0.9-0.2-1.7-0.3-2.6-0.2c-0.8,0-1.6,0.1-2.5,0.2
			c-0.8,0.2-1.5,0.4-2.2,0.7c-0.8,0.3-1.5,0.7-2.2,1.2c-0.7,0.5-1.4,1.1-2,1.7c-0.6,0.6-1.1,1.2-1.6,1.9c-0.4,0.6-0.8,1.3-1.1,2.1
			c-0.3,0.7-0.6,1.5-0.7,2.4c-0.2,0.9-0.3,1.7-0.2,2.6c0,0.8,0.1,1.6,0.2,2.5c0.2,0.8,0.4,1.5,0.7,2.2c0.3,0.8,0.7,1.5,1.2,2.2
			c0.5,0.7,1,1.4,1.7,2c0.6,0.6,1.2,1.1,1.9,1.6c0.6,0.4,1.3,0.8,2.1,1.1c0.6,0.2,1.1,0.5,1.8,0.6c-0.6-0.1-1.2-0.3-1.7-0.6
			c-0.7-0.3-1.4-0.7-2-1.1c-0.7-0.5-1.3-1-1.9-1.6c-0.6-0.6-1.2-1.3-1.7-2c-0.5-0.7-0.8-1.4-1.1-2.2c-0.3-0.7-0.5-1.5-0.7-2.2
			c-0.2-0.8-0.3-1.6-0.3-2.4c0-0.8,0.1-1.7,0.2-2.6c0.2-0.8,0.4-1.6,0.7-2.3c0.3-0.7,0.7-1.4,1.1-2c0.5-0.7,1-1.3,1.6-1.9
			c0.6-0.6,1.3-1.2,2-1.7c0.7-0.5,1.4-0.8,2.2-1.1c0.7-0.3,1.5-0.5,2.2-0.7c0.8-0.2,1.6-0.3,2.4-0.3c0.8,0,1.7,0.1,2.6,0.2
			c0.8,0.2,1.6,0.4,2.3,0.7c0.7,0.3,1.4,0.7,2,1.1c0.7,0.5,1.3,1,1.9,1.6c0.6,0.6,1.2,1.3,1.7,2c0.5,0.7,0.8,1.4,1.1,2.2
			c0.3,0.7,0.5,1.5,0.7,2.2c0.2,0.8,0.3,1.6,0.3,2.4c0,0.8-0.1,1.7-0.2,2.6c-0.2,0.8-0.4,1.6-0.7,2.3c-0.3,0.7-0.7,1.4-1.1,2
			c-0.5,0.7-1,1.3-1.6,1.9c-0.6,0.6-1.3,1.2-2,1.7c-0.7,0.5-1.4,0.8-2.2,1.1c-0.7,0.3-1.5,0.5-2.2,0.7c-0.8,0.2-1.6,0.3-2.4,0.3
			c-0.8,0-1.7-0.1-2.6-0.2c0.9,0.2,1.7,0.3,2.6,0.2c0.8,0,1.6-0.1,2.5-0.2c0.8-0.2,1.5-0.4,2.2-0.7c0.8-0.3,1.5-0.7,2.2-1.2
			c0.7-0.5,1.4-1,2-1.7c0.6-0.6,1.1-1.2,1.6-1.9c0.4-0.6,0.8-1.3,1.1-2.1c0.3-0.7,0.6-1.5,0.7-2.4C77.1,109.3,77.1,108.5,77.1,107.6
			z"/>
		<path class="st9" d="M54.5,97.9c-0.6,0.7-1.2,1.4-1.7,2.1c-0.5,0.7-0.9,1.5-1.2,2.3c-0.3,0.8-0.6,1.7-0.8,2.6
			c-0.2,1-0.3,1.9-0.3,2.9c0,0.9,0.1,1.8,0.3,2.7c0.2,0.8,0.4,1.7,0.7,2.5c0.3,0.8,0.8,1.7,1.3,2.4c0.6,0.8,1.2,1.6,1.8,2.2
			c0.7,0.6,1.4,1.2,2.1,1.7c0.7,0.5,1.5,0.9,2.3,1.2c0.9,0.3,1.7,0.6,2.6,0.8c1,0.2,1.9,0.3,2.9,0.3c0.9,0,1.8-0.1,2.7-0.3
			c0.8-0.2,1.7-0.4,2.5-0.7c0.8-0.3,1.7-0.8,2.4-1.3c0.8-0.6,1.6-1.2,2.2-1.8c0.6-0.7,1.2-1.4,1.7-2.1c0.5-0.7,0.9-1.5,1.2-2.3
			c0.3-0.9,0.6-1.7,0.8-2.6c0.2-1,0.3-1.9,0.3-2.9c0-0.9-0.1-1.8-0.3-2.7c-0.2-0.8-0.4-1.7-0.7-2.5c-0.3-0.8-0.8-1.7-1.3-2.4
			c-0.6-0.8-1.2-1.6-1.8-2.2c-0.7-0.6-1.4-1.2-2.1-1.7c-0.7-0.5-1.5-0.9-2.3-1.2c-0.9-0.3-1.7-0.6-2.6-0.8c-1-0.2-1.9-0.3-2.9-0.3
			c-0.9,0-1.8,0.1-2.7,0.3c-0.8,0.2-1.7,0.4-2.5,0.7c-0.8,0.3-1.7,0.8-2.4,1.3C55.9,96.6,55.2,97.2,54.5,97.9z M61.9,95.1
			c0.8-0.2,1.7-0.3,2.5-0.3c0.9,0,1.8,0.1,2.6,0.2c0.8,0.2,1.6,0.4,2.4,0.8c0.7,0.3,1.4,0.7,2.1,1.1c0.7,0.5,1.4,1,2,1.6
			c0.6,0.6,1.2,1.3,1.7,2.1c0.5,0.7,0.9,1.5,1.2,2.2c0.3,0.7,0.5,1.5,0.7,2.3c0.2,0.8,0.3,1.7,0.3,2.5c0,0.9-0.1,1.8-0.2,2.6
			c-0.2,0.8-0.4,1.6-0.8,2.4c-0.3,0.7-0.7,1.4-1.1,2.1c-0.5,0.7-1,1.4-1.6,2c-0.6,0.6-1.3,1.2-2.1,1.7c-0.7,0.5-1.5,0.9-2.2,1.2
			c-0.7,0.3-1.5,0.5-2.3,0.7c-0.8,0.2-1.7,0.3-2.5,0.3c-0.9,0-1.8-0.1-2.6-0.2c-0.8-0.2-1.6-0.4-2.4-0.8c-0.7-0.3-1.4-0.7-2.1-1.1
			c-0.7-0.5-1.4-1-2-1.6c-0.6-0.6-1.2-1.3-1.7-2.1c-0.5-0.7-0.9-1.5-1.2-2.2c-0.3-0.7-0.5-1.5-0.7-2.3c-0.2-0.8-0.3-1.7-0.3-2.5
			c0-0.9,0.1-1.8,0.2-2.6c0.2-0.8,0.4-1.6,0.8-2.4c0.3-0.7,0.7-1.4,1.1-2.1c0.5-0.7,1-1.4,1.6-2c0.6-0.6,1.3-1.2,2.1-1.7
			c0.7-0.5,1.5-0.9,2.2-1.2C60.4,95.5,61.1,95.3,61.9,95.1z"/>
		<path class="st7" d="M76.2,102.9l1-0.4c-0.3-0.8-0.8-1.6-1.3-2.4l-0.9,0.6C75.5,101.4,75.9,102.2,76.2,102.9z"/>
		<path class="st4" d="M76.9,105.2L78,105c-0.2-0.8-0.4-1.6-0.7-2.4l-1,0.4C76.5,103.7,76.7,104.4,76.9,105.2z"/>
		<path class="st7" d="M77.1,107.6l1.1,0c0-0.9-0.1-1.8-0.3-2.7l-1.1,0.2C77,106,77.1,106.8,77.1,107.6z"/>
		<path class="st4" d="M71.5,118.2l0.6,0.9c0.8-0.5,1.5-1.1,2.2-1.8l-0.8-0.8C72.9,117.2,72.2,117.8,71.5,118.2z"/>
		<path class="st4" d="M53.9,100.8l-0.9-0.6c-0.5,0.7-0.9,1.4-1.2,2.2l1,0.5C53.1,102.1,53.5,101.4,53.9,100.8z"/>
		<path class="st7" d="M51.8,107.8l-1.1,0c0,0.9,0.1,1.8,0.3,2.7l1.1-0.2C51.9,109.5,51.9,108.6,51.8,107.8z"/>
		<path class="st7" d="M52.8,102.8l-1-0.4c-0.3,0.8-0.6,1.7-0.8,2.6l1.1,0.2C52.3,104.4,52.5,103.6,52.8,102.8z"/>
		<path class="st4" d="M52.1,105.2L51,105c-0.2,1-0.3,1.9-0.3,2.9l1.1,0C51.8,107,51.9,106.1,52.1,105.2z"/>
		<path class="st4" d="M52.1,110.3l-1.1,0.2c0.2,0.8,0.4,1.6,0.7,2.4l1-0.4C52.5,111.8,52.3,111.1,52.1,110.3z"/>
		<path class="st4" d="M53.9,114.7l-0.9,0.6c0.5,0.8,1.1,1.5,1.8,2.2l0.8-0.8C55,116.1,54.4,115.4,53.9,114.7z"/>
		<path class="st7" d="M52.8,112.5l-1,0.4c0.3,0.8,0.8,1.6,1.3,2.4l0.9-0.6C53.5,114,53.1,113.3,52.8,112.5z"/>
		<path class="st7" d="M55.6,116.7l-0.8,0.8c0.7,0.6,1.3,1.2,2.1,1.7l0.6-0.9C56.8,117.8,56.2,117.3,55.6,116.7z"/>
		<path class="st7" d="M55.5,98.9l-0.8-0.8c-0.6,0.7-1.2,1.3-1.7,2.1l0.9,0.6C54.4,100.1,54.9,99.4,55.5,98.9z"/>
		<path class="st4" d="M67,95.3l0.2-1.1c-1-0.2-1.9-0.3-2.9-0.3l0,1.1C65.3,95.1,66.1,95.2,67,95.3z"/>
		<path class="st4" d="M61.9,95.3l-0.2-1.1c-0.8,0.2-1.6,0.4-2.4,0.7l0.4,1C60.4,95.7,61.2,95.5,61.9,95.3z"/>
		<path class="st7" d="M64.4,95.1l0-1.1c-0.9,0-1.8,0.1-2.7,0.3l0.2,1.1C62.7,95.2,63.6,95.1,64.4,95.1z"/>
		<path class="st4" d="M57.5,97.2l-0.6-0.9c-0.8,0.5-1.5,1.1-2.2,1.8l0.8,0.8C56.1,98.2,56.8,97.7,57.5,97.2z"/>
		<path class="st7" d="M59.7,96l-0.4-1c-0.8,0.3-1.6,0.8-2.4,1.3l0.6,0.9C58.2,96.7,58.9,96.3,59.7,96z"/>
		<path class="st4" d="M77.1,107.6c0,0.8-0.1,1.7-0.2,2.6l1.1,0.2c0.2-1,0.3-1.9,0.3-2.9L77.1,107.6z"/>
		<path class="st7" d="M76.1,112.6l1,0.5c0.3-0.8,0.6-1.7,0.8-2.6l-1.1-0.2C76.7,111.1,76.5,111.8,76.1,112.6z"/>
		<path class="st4" d="M75,100.7l0.9-0.6c-0.5-0.8-1.1-1.5-1.8-2.2l-0.8,0.8C74,99.3,74.5,100,75,100.7z"/>
		<path class="st4" d="M75,114.7l0.9,0.6c0.5-0.7,0.9-1.4,1.2-2.2l-1-0.4C75.8,113.3,75.5,114,75,114.7z"/>
		<path class="st4" d="M57.6,118.3l-0.6,0.9c0.7,0.5,1.4,0.9,2.2,1.2l0.5-1C58.9,119.1,58.2,118.7,57.6,118.3z"/>
		<path class="st7" d="M73.4,98.7l0.8-0.8c-0.7-0.6-1.3-1.2-2.1-1.7l-0.6,0.9C72.1,97.6,72.8,98.1,73.4,98.7z"/>
		<path class="st4" d="M71.4,97.2l0.6-0.9c-0.7-0.5-1.4-0.9-2.2-1.2l-0.4,1C70.1,96.4,70.8,96.8,71.4,97.2z"/>
		<path class="st7" d="M73.5,116.6l0.8,0.8c0.6-0.7,1.2-1.3,1.7-2.1l-0.9-0.6C74.6,115.4,74.1,116,73.5,116.6z"/>
		<path class="st4" d="M62,120.1l-0.2,1.1c1,0.2,1.9,0.3,2.9,0.3l0-1.1C63.7,120.4,62.8,120.3,62,120.1z"/>
		<path class="st7" d="M69.4,96.1l0.4-1c-0.8-0.3-1.7-0.6-2.6-0.8L67,95.4C67.8,95.5,68.6,95.7,69.4,96.1z"/>
		<path class="st7" d="M59.6,119.4l-0.5,1c0.8,0.3,1.7,0.6,2.6,0.8l0.2-1.1C61.1,120,60.3,119.7,59.6,119.4z"/>
		<path class="st7" d="M64.6,120.4l0,1.1c0.9,0,1.8-0.1,2.7-0.3l-0.2-1.1C66.3,120.3,65.4,120.4,64.6,120.4z"/>
		<path class="st4" d="M67,120.1l0.2,1.1c0.8-0.2,1.6-0.4,2.4-0.7l-0.4-1C68.6,119.7,67.8,120,67,120.1z"/>
		<path class="st7" d="M69.3,119.4l0.4,1c0.8-0.3,1.6-0.8,2.4-1.3l-0.6-0.9C70.8,118.7,70,119.1,69.3,119.4z"/>
		<path class="st7" d="M48.7,107.1c0,0,0,0.1,0,0.1C48.7,107.1,48.7,107.1,48.7,107.1z"/>
		<path class="st7" d="M73.2,120.9c0.9-0.6,1.7-1.3,2.5-2.1C75,119.6,74.1,120.3,73.2,120.9z"/>
		<path class="st7" d="M56.9,121.6c0.4,0.2,0.8,0.4,1.2,0.6C57.7,122,57.3,121.8,56.9,121.6z"/>
		<path class="st7" d="M56.4,121.3c0.2,0.1,0.3,0.2,0.5,0.3C56.7,121.5,56.5,121.4,56.4,121.3z"/>
		<path class="st7" d="M80.3,108.3L80.3,108.3L80.3,108.3z"/>
		<path class="st10" d="M54.5,95.5c-0.4,0.3-0.8,0.7-1.2,1.1C53.6,96.2,54,95.8,54.5,95.5z"/>
		<path class="st10" d="M55.1,95c-0.2,0.1-0.4,0.3-0.6,0.5C54.7,95.3,54.9,95.1,55.1,95z"/>
		
			<linearGradient id="SVGID_1_" gradientUnits="userSpaceOnUse" x1="-1309.3978" y1="-233.3465" x2="-1309.11" y2="-233.3465" gradientTransform="matrix(3.8912 -0.3413 -0.3413 -3.8912 5061.1924 -1245.5601)">
			<stop  offset="0" style="stop-color:#9FA3A5"/>
			<stop  offset="0.2936" style="stop-color:#C6C8C9"/>
			<stop  offset="0.5842" style="stop-color:#E5E6E7"/>
			<stop  offset="0.8296" style="stop-color:#F8F8F9"/>
			<stop  offset="1" style="stop-color:#FFFFFF"/>
		</linearGradient>
		<path class="st11" d="M47,112.1c-0.1-0.2-0.1-0.4-0.1-0.6c-0.2-1.1-0.4-2.3-0.4-3.5c0-0.5,0-1,0.1-1.5l-0.3,0c0,0.5-0.1,1-0.1,1.5
			c0,1.2,0.1,2.4,0.4,3.6c0.1,0.2,0.1,0.4,0.2,0.6L47,112.1z"/>
		
			<linearGradient id="SVGID_2_" gradientUnits="userSpaceOnUse" x1="-1863.1838" y1="401.0021" x2="-1862.8958" y2="401.0021" gradientTransform="matrix(-4.2082 -6.3561 -6.3561 4.2082 -5215.9092 -13406.5107)">
			<stop  offset="0" style="stop-color:#9FA3A5"/>
			<stop  offset="0.2936" style="stop-color:#C6C8C9"/>
			<stop  offset="0.5842" style="stop-color:#E5E6E7"/>
			<stop  offset="0.8296" style="stop-color:#F8F8F9"/>
			<stop  offset="1" style="stop-color:#FFFFFF"/>
		</linearGradient>
		<path class="st12" d="M74.4,122.9c-0.6,0.4-1.1,0.7-1.7,1l0.1,0.2c0.6-0.3,1.2-0.7,1.8-1c1-0.7,2-1.5,2.9-2.4l-0.2-0.2
			C76.4,121.4,75.5,122.2,74.4,122.9z"/>
		
			<linearGradient id="SVGID_3_" gradientUnits="userSpaceOnUse" x1="-1860.7167" y1="-173.2467" x2="-1860.4276" y2="-173.2467" gradientTransform="matrix(2.1408 -3.3467 -3.3467 -2.1408 3457.9446 -6474.543)">
			<stop  offset="0" style="stop-color:#9FA3A5"/>
			<stop  offset="0.2936" style="stop-color:#C6C8C9"/>
			<stop  offset="0.5842" style="stop-color:#E5E6E7"/>
			<stop  offset="0.8296" style="stop-color:#F8F8F9"/>
			<stop  offset="1" style="stop-color:#FFFFFF"/>
		</linearGradient>
		<path class="st13" d="M54.6,122.9c-0.7-0.5-1.4-1-2.1-1.6l-0.2,0.2c0.7,0.6,1.4,1.2,2.1,1.6c0.9,0.6,1.8,1.1,2.7,1.5l0.1-0.2
			C56.3,123.9,55.4,123.4,54.6,122.9z"/>
		
			<linearGradient id="SVGID_4_" gradientUnits="userSpaceOnUse" x1="-1688.6949" y1="683.2531" x2="-1688.4067" y2="683.2531" gradientTransform="matrix(-6.9299 0.1819 0.1819 6.9299 -11743.0996 -4321.4033)">
			<stop  offset="0" style="stop-color:#9FA3A5"/>
			<stop  offset="0.2936" style="stop-color:#C6C8C9"/>
			<stop  offset="0.5842" style="stop-color:#E5E6E7"/>
			<stop  offset="0.8296" style="stop-color:#F8F8F9"/>
			<stop  offset="1" style="stop-color:#FFFFFF"/>
		</linearGradient>
		<path class="st14" d="M82.1,104.2c0.2,1.1,0.4,2.3,0.4,3.5c0,0.5,0,1-0.1,1.5l0.3,0c0-0.5,0.1-1,0.1-1.5c0-1.2-0.1-2.4-0.4-3.6
			c0-0.2-0.1-0.4-0.2-0.6l-0.3,0.1C82,103.7,82.1,103.9,82.1,104.2z"/>
		
			<linearGradient id="SVGID_5_" gradientUnits="userSpaceOnUse" x1="-1361.0933" y1="668.4131" x2="-1360.8066" y2="668.4131" gradientTransform="matrix(-3.8533 5.7267 5.7267 3.8533 -8997.4082 5310.2944)">
			<stop  offset="0" style="stop-color:#9FA3A5"/>
			<stop  offset="0.2936" style="stop-color:#C6C8C9"/>
			<stop  offset="0.5842" style="stop-color:#E5E6E7"/>
			<stop  offset="0.8296" style="stop-color:#F8F8F9"/>
			<stop  offset="1" style="stop-color:#FFFFFF"/>
		</linearGradient>
		<path class="st15" d="M74.4,92.7c0.7,0.5,1.4,1,2.1,1.6l0.2-0.2c-0.7-0.6-1.4-1.1-2.1-1.6c-0.9-0.6-1.8-1.1-2.7-1.5l-0.1,0.2
			C72.7,91.7,73.5,92.2,74.4,92.7z"/>
		<path class="st9" d="M46.5,106.4c0.1-0.7,0.2-1.5,0.3-2.2c0.2-1.2,0.6-2.3,1-3.4c0.4-1,1-2,1.6-2.9c0.7-1,1.4-1.9,2.2-2.7l0,0
			l-0.2-0.2l-0.1,0c-0.9,0.8-1.6,1.8-2.3,2.8c-0.6,0.9-1.1,1.9-1.6,3c-0.5,1.1-0.8,2.2-1.1,3.4c-0.2,0.7-0.3,1.5-0.3,2.3L46.5,106.4
			z"/>
		<path class="st9" d="M52.5,121.3c-0.2-0.2-0.5-0.4-0.7-0.6c-0.9-0.9-1.7-1.8-2.4-2.9c-0.6-1-1.2-2-1.7-3.1
			c-0.3-0.8-0.6-1.7-0.8-2.5l-0.3,0.1c0.2,0.9,0.5,1.7,0.8,2.6c0.5,1.1,1,2.2,1.7,3.2c0.7,1.1,1.5,2,2.4,2.9
			c0.2,0.2,0.4,0.4,0.7,0.6L52.5,121.3z"/>
		<path class="st9" d="M72.7,123.8c-0.5,0.2-0.9,0.5-1.4,0.7c-1,0.4-2.1,0.7-3.2,1c-1.1,0.2-2.3,0.4-3.5,0.4c-1.2,0-2.5-0.1-3.7-0.4
			c-1.2-0.2-2.3-0.6-3.4-1.1c-0.1,0-0.2-0.1-0.2-0.1l-0.1,0.2c0.1,0,0.2,0.1,0.2,0.1c1.1,0.5,2.2,0.8,3.4,1.1
			c1.3,0.3,2.5,0.4,3.8,0.4c1.2,0,2.4-0.1,3.6-0.4c1.1-0.2,2.2-0.6,3.2-1c0.5-0.2,1-0.4,1.4-0.7L72.7,123.8z"/>
		<path class="st9" d="M82.7,109.2l-0.3,0l0,0c-0.1,0.7-0.2,1.5-0.3,2.2c-0.2,1.2-0.6,2.3-1.1,3.4c-0.4,1-1,2-1.6,2.9
			c-0.7,1-1.4,1.9-2.2,2.7l0,0l0.2,0.2l0,0c0.9-0.8,1.6-1.8,2.3-2.8c0.6-0.9,1.1-1.9,1.6-3c0.5-1.1,0.8-2.2,1.1-3.4
			C82.6,110.7,82.7,109.9,82.7,109.2z"/>
		<path class="st9" d="M76.5,94.3c0.2,0.2,0.4,0.4,0.6,0.6c0.9,0.9,1.7,1.8,2.4,2.9c0.6,1,1.2,2,1.7,3.1c0.3,0.8,0.6,1.7,0.8,2.5
			l0.3-0.1c-0.2-0.9-0.5-1.7-0.8-2.6c-0.5-1.1-1-2.2-1.7-3.2c-0.7-1.1-1.5-2-2.4-2.9c-0.2-0.2-0.4-0.4-0.7-0.6L76.5,94.3z"/>
		<path class="st9" d="M56.2,91.8c0.5-0.2,0.9-0.5,1.4-0.7c1-0.4,2.1-0.7,3.2-1c1.1-0.2,2.3-0.4,3.5-0.4c1.2,0,2.5,0.1,3.7,0.4
			c1.2,0.2,2.3,0.6,3.4,1c0.1,0,0.2,0.1,0.2,0.1l0.1-0.2c-0.1,0-0.2-0.1-0.2-0.1c-1.1-0.5-2.2-0.8-3.4-1.1c-1.3-0.3-2.5-0.4-3.8-0.4
			c-1.2,0-2.4,0.1-3.6,0.4c-1.1,0.2-2.2,0.6-3.2,1c-0.5,0.2-1,0.4-1.4,0.7L56.2,91.8z"/>
		
			<linearGradient id="SVGID_6_" gradientUnits="userSpaceOnUse" x1="-1253.7561" y1="308.73" x2="-1253.4667" y2="308.73" gradientTransform="matrix(4.9374 6.8715 6.8715 -4.9374 4121.5156 10231.1377)">
			<stop  offset="0" style="stop-color:#9FA3A5"/>
			<stop  offset="0.2936" style="stop-color:#C6C8C9"/>
			<stop  offset="0.5842" style="stop-color:#E5E6E7"/>
			<stop  offset="0.8296" style="stop-color:#F8F8F9"/>
			<stop  offset="1" style="stop-color:#FFFFFF"/>
		</linearGradient>
		<path class="st16" d="M54.5,92.8c0.6-0.4,1.1-0.7,1.7-1l-0.1-0.2c-0.6,0.3-1.2,0.7-1.8,1c-1,0.7-2,1.5-2.9,2.4l0.2,0.2
			C52.5,94.2,53.5,93.4,54.5,92.8z"/>
		<path class="st10" d="M64.5,124.6c0.1-0.4,0.5-0.7,0.9-0.6s0.7,0.5,0.6,0.9c-0.1,0.4-0.5,0.7-0.9,0.6
			C64.7,125.4,64.4,125,64.5,124.6z"/>
		<path class="st10" d="M63.2,91.8c0.1-0.4,0.5-0.7,0.9-0.6c0.4,0.1,0.7,0.5,0.6,0.9c-0.1,0.4-0.5,0.7-0.9,0.6
			C63.4,92.6,63.1,92.2,63.2,91.8z"/>
		<path class="st10" d="M49,101.8c0.1-0.4,0.5-0.7,0.9-0.6s0.7,0.5,0.6,0.9c-0.1,0.4-0.5,0.7-0.9,0.6
			C49.2,102.6,48.9,102.2,49,101.8z"/>
		<path class="st10" d="M49.3,116.7c0.1-0.4,0.5-0.7,0.9-0.6s0.7,0.5,0.6,0.9c-0.1,0.4-0.5,0.7-0.9,0.6
			C49.5,117.5,49.3,117.1,49.3,116.7z"/>
		<path class="st10" d="M78.1,114.3c0.1-0.4,0.5-0.7,0.9-0.6c0.4,0.1,0.7,0.5,0.6,0.9c-0.1,0.4-0.5,0.7-0.9,0.6
			C78.3,115.1,78,114.7,78.1,114.3z"/>
		<path class="st10" d="M77.3,99.6c0.1-0.4,0.5-0.7,0.9-0.6c0.4,0.1,0.7,0.5,0.6,0.9c-0.1,0.4-0.5,0.7-0.9,0.6
			C77.5,100.4,77.3,100,77.3,99.6z"/>
		<path class="st9" d="M73.5,116.6c0.6-0.6,1.1-1.3,1.6-1.9c0.4-0.7,0.8-1.3,1.1-2.1c0.3-0.8,0.6-1.6,0.7-2.4
			c0.2-0.8,0.3-1.7,0.2-2.6c0-0.8-0.1-1.6-0.2-2.5c-0.2-0.8-0.4-1.5-0.7-2.2c-0.1-0.2-0.1-0.3-0.2-0.5c0-0.1-0.1-0.1-0.1-0.1
			c-0.1-0.1-0.1-0.2-0.2-0.4c0-0.1-0.1-0.1-0.1-0.2c-0.1-0.1-0.2-0.3-0.3-0.4l0-0.1c-0.1-0.2-0.2-0.4-0.3-0.5
			c-0.1-0.2-0.2-0.4-0.4-0.5l0,0l0,0l0,0l0,0c-0.1-0.1-0.2-0.3-0.3-0.4c0-0.1-0.1-0.1-0.1-0.1c-0.1-0.1-0.2-0.2-0.3-0.3
			c0,0-0.1-0.1-0.1-0.1c-0.1-0.1-0.3-0.3-0.4-0.4c-0.6-0.6-1.3-1.1-1.9-1.6c-0.7-0.4-1.3-0.8-2.1-1.1c-0.8-0.3-1.6-0.6-2.4-0.7
			c-0.8-0.2-1.7-0.3-2.6-0.2c-0.8,0-1.6,0.1-2.5,0.2c-0.8,0.2-1.5,0.4-2.2,0.7c-0.8,0.3-1.5,0.7-2.2,1.2c-0.8,0.5-1.4,1.1-2,1.7
			c-0.6,0.6-1.1,1.3-1.6,1.9c-0.4,0.7-0.8,1.3-1.1,2.1c-0.3,0.8-0.6,1.6-0.7,2.4c-0.2,0.8-0.3,1.7-0.2,2.6c0,0.8,0.1,1.6,0.2,2.5
			c0.2,0.8,0.4,1.5,0.7,2.2c0.1,0.2,0.1,0.3,0.2,0.5c0,0.1,0.1,0.1,0.1,0.1c0.1,0.1,0.1,0.2,0.2,0.4c0,0.1,0.1,0.1,0.1,0.2
			c0.1,0.1,0.2,0.3,0.3,0.4c0.1,0.2,0.2,0.4,0.3,0.6c0.5,0.8,1.1,1.4,1.7,2c0.6,0.6,1.3,1.1,1.9,1.6c0.7,0.4,1.3,0.8,2.1,1.1
			c0.8,0.3,1.6,0.6,2.4,0.7c0.8,0.2,1.7,0.3,2.6,0.2c0.8,0,1.6-0.1,2.5-0.2c0.8-0.2,1.5-0.4,2.2-0.7c0.8-0.3,1.5-0.7,2.2-1.2
			C72.2,117.8,72.9,117.2,73.5,116.6z M76,102.6c0,0,0-0.1-0.1-0.1C76,102.5,76,102.5,76,102.6z M75.9,102.2c0-0.1-0.1-0.2-0.1-0.3
			C75.8,102,75.8,102.1,75.9,102.2z M75.6,101.7c-0.1-0.1-0.2-0.3-0.2-0.4C75.5,101.5,75.6,101.6,75.6,101.7z M74.6,100.2
			c-0.1-0.1-0.2-0.3-0.3-0.4C74.4,99.9,74.5,100,74.6,100.2z M74.2,99.5c-0.1-0.1-0.1-0.1-0.2-0.2C74,99.4,74.1,99.5,74.2,99.5z
			 M73.7,99.1C73.7,99.1,73.7,99,73.7,99.1C73.7,99,73.7,99.1,73.7,99.1z M53,112.9c0,0,0,0.1,0.1,0.1C53,112.9,53,112.9,53,112.9z
			 M53.1,113.2c0,0.1,0.1,0.2,0.1,0.3C53.2,113.4,53.1,113.3,53.1,113.2z M53.3,113.7c0.1,0.1,0.2,0.3,0.2,0.4
			C53.5,114,53.4,113.8,53.3,113.7z"/>
		<path class="st17" d="M76.9,107.6c0-0.8-0.1-1.6-0.3-2.4c-0.2-0.8-0.4-1.5-0.7-2.2c-0.3-0.8-0.7-1.5-1.1-2.1c-0.5-0.7-1-1.4-1.6-2
			c-0.6-0.6-1.2-1.1-1.9-1.5c-0.6-0.4-1.3-0.8-2-1.1c-0.2-0.1-0.3-0.1-0.5-0.2c0,0-0.1,0-0.2-0.1c-0.1,0-0.3-0.1-0.4-0.1
			c0,0-0.1,0-0.2-0.1c-0.1-0.1-0.3-0.1-0.5-0.1l0,0c-0.2,0-0.4-0.1-0.6-0.1c-0.2,0-0.4-0.1-0.6-0.1l0,0l0,0l0,0l0,0
			c-0.2,0-0.4,0-0.5-0.1c0,0-0.1,0-0.2,0c-0.1,0-0.3,0-0.4,0c0,0-0.1,0-0.2,0c-0.2,0-0.4,0-0.6,0c-0.8,0-1.6,0.1-2.4,0.3
			c-0.8,0.2-1.5,0.4-2.2,0.7c-0.8,0.3-1.5,0.7-2.1,1.1c-0.7,0.5-1.4,1-2,1.6c-0.6,0.6-1.1,1.2-1.5,1.9c-0.4,0.6-0.8,1.3-1.1,2
			c-0.3,0.7-0.5,1.5-0.7,2.3c-0.2,0.8-0.3,1.7-0.3,2.5c0,0.8,0.1,1.6,0.3,2.4c0.2,0.8,0.4,1.5,0.7,2.2c0.3,0.8,0.7,1.5,1.1,2.1
			c0.5,0.7,1,1.4,1.6,2c0.6,0.6,1.2,1.1,1.9,1.5c0.6,0.4,1.3,0.8,2,1.1c0.2,0.1,0.3,0.1,0.5,0.2c0,0,0.1,0,0.2,0.1
			c0.1,0,0.3,0.1,0.4,0.1c0,0,0.1,0,0.2,0.1c0.1,0.1,0.3,0.1,0.5,0.1c0.2,0,0.4,0.1,0.6,0.2c0.8,0.2,1.7,0.3,2.5,0.3
			c0.8,0,1.6-0.1,2.4-0.3c0.8-0.2,1.5-0.4,2.2-0.7c0.8-0.3,1.5-0.7,2.1-1.1c0.7-0.5,1.4-1,2-1.6c0.6-0.6,1.1-1.2,1.5-1.9
			c0.4-0.6,0.8-1.3,1.1-2c0.3-0.7,0.6-1.5,0.7-2.3C76.8,109.3,76.9,108.5,76.9,107.6z M68.9,96.2C68.9,96.2,68.9,96.1,68.9,96.2
			C68.8,96.1,68.9,96.2,68.9,96.2z M68.6,96c-0.1,0-0.2-0.1-0.3-0.1C68.4,96,68.5,96,68.6,96z M68,95.9c-0.1-0.1-0.3-0.1-0.4-0.1
			C67.7,95.8,67.9,95.8,68,95.9z M65.5,95.4c-0.1,0-0.2,0-0.3,0C65.3,95.4,65.4,95.4,65.5,95.4z M64.9,95.4
			C64.9,95.4,64.8,95.4,64.9,95.4C64.8,95.3,64.9,95.4,64.9,95.4z M60,119.3C60.1,119.3,60.1,119.3,60,119.3
			C60.1,119.3,60.1,119.3,60,119.3z M60.4,119.4c0.1,0,0.2,0.1,0.3,0.1C60.6,119.5,60.5,119.4,60.4,119.4z M60.9,119.6
			c0.1,0.1,0.3,0.1,0.4,0.1C61.2,119.7,61.1,119.6,60.9,119.6z"/>
		<circle class="st18" cx="64.5" cy="107.8" r="12.7"/>
		<g>
			<path class="st2" d="M63.9,107.1L63.9,107.1L63.9,107.1z"/>
			<path class="st2" d="M69,108.1L69,108.1L69,108.1z"/>
		</g>
		<g>
			<path class="st2" d="M72.4,114.8l-1.7-6.5c0-0.1,0-0.1-0.1-0.1l-2.5-0.5l-1.3,0.9c0,0,2.5,0.5,2.9,0.5c0,0,0,0.1,0.1,0.1l1.1,4.1
				c0,0.1-0.1,0.1-0.1,0.1l-6.6-1.3l-0.9-0.2l-6.6-1.3c0,0-0.1-0.1,0-0.1l2.6-3.4c0.1,0,0.1,0,0.1,0c0.4,0.1,2.9,0.6,2.9,0.6
				l-0.8-1.3l-2.6-0.5c0,0-0.1,0-0.1,0l-4.1,5.3c-0.1,0,0,0.1,0,0.1L63,113l0.9,0.2l8.4,1.7C72.4,114.9,72.5,114.9,72.4,114.8z"/>
			<path class="st4" d="M66.3,99.3c-2.2-0.5-4.4,1-4.9,3.2c-0.2,0.7-0.1,1.5,0.2,2.2c0.4,1,1,1.8,1.4,2.5c0.5,0.9,0.9,2.3,1,2.7
				c0,0.1,0,0.1,0.1,0.1c0.1,0.1,0.2,0,0.2,0c0.3-0.3,1.2-1.5,2-2.1c0.6-0.5,1.5-0.9,2.2-1.8c0.6-0.5,0.9-1.2,1.1-1.9
				C70,102,68.5,99.8,66.3,99.3z M65,105.5c-1.2-0.2-1.9-1.4-1.7-2.6c0.2-1.2,1.4-1.9,2.5-1.7c1.2,0.2,1.9,1.4,1.7,2.6
				C67.4,105,66.2,105.8,65,105.5z"/>
		</g>
	</g>
</g>
<rect class="st19" width="134.4" height="134.4"/>
</svg>
