<?xml version="1.0" encoding="utf-8"?>
<!-- Generator: Adobe Illustrator 24.1.1, SVG Export Plug-In . SVG Version: 6.00 Build 0)  -->
<svg version="1.1" id="Layer_1" xmlns="http://www.w3.org/2000/svg" xmlns:xlink="http://www.w3.org/1999/xlink" x="0px" y="0px"
	 width="154.1px" height="199.1px" viewBox="0 0 154.1 199.1" style="enable-background:new 0 0 154.1 199.1;" xml:space="preserve"
	>
<style type="text/css">
	.st0{fill:#FBF5F9;}
	.st1{fill:#FF4FC6;}
	.st2{fill:url(#SVGID_1_);}
	.st3{fill:url(#SVGID_2_);}
	.st4{fill:#FFFFFF;}
	.st5{fill:#FAF8F9;}
	.st6{fill:#FF79AE;}
	.st7{fill:url(#SVGID_3_);}
	.st8{fill:url(#SVGID_4_);}
	.st9{fill:url(#SVGID_5_);}
	.st10{fill:url(#SVGID_6_);}
	.st11{fill:#00B9ED;}
	.st12{fill:#0D0024;}
	.st13{fill:#00FFFF;}
</style>
<path class="st0" d="M141.5,119.3l-12.4-8.1c-2.3,3.6-5,6.9-8,9.9c-1.6,1.6-3.3,3.1-5.1,4.6l9.2,11.6c2.2-1.8,4.3-3.7,6.4-5.7
	C135.3,127.8,138.6,123.7,141.5,119.3z"/>
<path class="st0" d="M53.9,134.9c-2.8-1.1-5.6-2.5-8.2-4l-7.5,12.8c3.2,1.9,6.6,3.6,10.1,5c4,1.6,8.2,2.9,12.5,3.8l3.1-14.5
	C60.5,137.2,57.1,136.2,53.9,134.9z"/>
<path class="st1" d="M39.4,114.3l-3.3,3.3c2.8,2.8,6,5.4,9.3,7.6l2.6-4C44.9,119.3,42,117,39.4,114.3z"/>
<path class="st0" d="M48,121.3l-2.6,4c3.2,2,6.5,3.9,10.1,5.2l1.7-4.4C54,124.8,50.9,123.2,48,121.3z"/>
<path class="st1" d="M57.3,126.1l-1.7,4.4c3.3,1.3,6.6,2.4,10.2,3.1l1-4.6C63.4,128.3,60.3,127.4,57.3,126.1z"/>
<path class="st1" d="M77.1,130v4.7c4.1,0,8.1-0.4,12-1.3l-1-4.6C84.5,129.5,80.8,130,77.1,130z"/>
<path class="st0" d="M66.6,128.9l-1,4.6c3.6,0.7,7.5,1.1,11.3,1.1v-4.7C73.5,130,70,129.7,66.6,128.9z"/>
<path class="st0" d="M88,128.8l1,4.6c3.7-0.7,7.4-1.9,10.8-3.4l-1.8-4.3C94.9,127.1,91.4,128.2,88,128.8z"/>
<path class="st1" d="M98,125.7l1.8,4.3c3.3-1.4,6.4-3.1,9.3-5.1l-2.6-3.9C103.9,122.8,101.1,124.4,98,125.7z"/>
<path class="st0" d="M106.6,121l2.6,3.9c3.2-2.1,6.1-4.5,8.8-7.2l-3.3-3.3C112.2,116.8,109.5,119.1,106.6,121z"/>
<path class="st0" d="M124.2,123.9c3.2-3.2,6.1-6.7,8.6-10.6C130.3,117.1,127.4,120.7,124.2,123.9z"/>
<path class="st0" d="M57.6,140.5c1.8,0.5,3.6,1,5.5,1.4C61.2,141.4,59.4,141,57.6,140.5z"/>
<path class="st0" d="M54.9,139.6c0.7,0.2,1.5,0.5,2.1,0.7C56.4,140.1,55.7,139.8,54.9,139.6z"/>
<linearGradient id="SVGID_1_" gradientUnits="userSpaceOnUse" x1="-2053.9705" y1="113.9245" x2="-2052.7576" y2="113.9245" gradientTransform="matrix(-5.3902 -5.3902 5.3902 -5.3902 -11547.9727 -10324.8711)">
	<stop  offset="0" style="stop-color:#9FA3A5"/>
	<stop  offset="0.2936" style="stop-color:#C6C8C9"/>
	<stop  offset="0.5842" style="stop-color:#E5E6E7"/>
	<stop  offset="0.8296" style="stop-color:#F8F8F9"/>
	<stop  offset="1" style="stop-color:#FFFFFF"/>
</linearGradient>
<path class="st2" d="M130.8,130.8c-2,2-4.1,3.8-6.3,5.6l0.7,0.9c2.2-1.8,4.3-3.7,6.4-5.7c3.7-3.7,7.1-7.8,10-12.2l-0.9-0.6
	C137.7,123,134.4,127.1,130.8,130.8z"/>
<linearGradient id="SVGID_2_" gradientUnits="userSpaceOnUse" x1="-2079.2957" y1="750.3628" x2="-2078.082" y2="750.3628" gradientTransform="matrix(1.4311 -3.7061 3.7061 1.4311 243.2683 -8629.252)">
	<stop  offset="0" style="stop-color:#9FA3A5"/>
	<stop  offset="0.2936" style="stop-color:#C6C8C9"/>
	<stop  offset="0.5842" style="stop-color:#E5E6E7"/>
	<stop  offset="0.8296" style="stop-color:#F8F8F9"/>
	<stop  offset="1" style="stop-color:#FFFFFF"/>
</linearGradient>
<path class="st3" d="M48.8,147.6c-3.5-1.4-6.8-3-10-4.9l-0.6,1c3.2,1.9,6.6,3.6,10.1,5c4,1.6,8.2,2.9,12.5,3.8l0.2-1.1
	C56.9,150.4,52.8,149.1,48.8,147.6z"/>
<path class="st4" d="M124.5,136.3c-1.7,1.4-3.5,2.7-5.3,3.9c-3.9,2.6-8,4.8-12.3,6.7c-4.5,1.9-9.3,3.5-14.2,4.5
	c-5.1,1.1-10.3,1.6-15.7,1.6c-5.1,0-10-0.5-14.9-1.5c-0.4-0.1-0.7-0.2-1.1-0.2l-0.2,1.1c0.4,0.1,0.8,0.2,1.1,0.2
	c4.9,1,9.9,1.5,15.1,1.5c5.4,0,10.8-0.6,15.9-1.6c5-1,9.8-2.6,14.4-4.6c4.4-1.9,8.5-4.1,12.5-6.8c1.8-1.2,3.6-2.6,5.3-3.9
	L124.5,136.3z"/>
<path class="st5" d="M91.2,146.2c0-1.8,1.5-3.3,3.3-3.3s3.3,1.5,3.3,3.3s-1.5,3.3-3.3,3.3C92.7,149.6,91.2,148.1,91.2,146.2z"/>
<path class="st5" d="M22.1,126.3c0-1.8,1.5-3.3,3.3-3.3s3.3,1.5,3.3,3.3s-1.5,3.3-3.3,3.3S22.1,128.2,22.1,126.3z"/>
<g>
	<path class="st0" d="M138.8,63.7c-0.9-4.1-2.1-8-3.7-11.8c-1.5-3.5-3.4-7-5.6-10.2c-2.4-3.4-4.9-6.6-7.8-9.5
		c-3.1-3.1-6.5-5.9-10.2-8.2c-3.4-2.2-7.2-4.2-11-5.8c-3.5-1.4-7.3-2.6-11.1-3.3c-0.9-0.2-1.8-0.3-2.7-0.4c-0.3,0-0.5-0.1-0.9-0.1
		c-0.6-0.1-1.3-0.2-1.9-0.2c-0.3,0-0.6-0.1-0.9-0.1c-0.9-0.1-1.7-0.1-2.5-0.2h-0.3c-1.1,0-2-0.1-3.1-0.1s-2.2,0-3.3,0.1l0,0l0,0l0,0
		h-0.2c-0.9,0-1.8,0.1-2.7,0.2c-0.3,0-0.6,0.1-1,0.1c-0.7,0.1-1.4,0.2-2,0.3c-0.3,0-0.6,0.1-0.9,0.1c-1,0.1-1.9,0.3-2.9,0.5
		c-4.1,0.9-8,2.1-11.8,3.7c-3.5,1.5-7,3.4-10.2,5.6c-3.4,2.4-6.6,4.9-9.5,7.8c-3.1,3.1-5.8,6.5-8.2,10.2c-2.2,3.4-4.2,7.2-5.8,11
		c-1.4,3.5-2.6,7.3-3.3,11.1c-0.7,4-1.2,8.1-1.2,12.3c0,4.5,0.4,8.8,1.4,13c0.9,4.1,2.1,8,3.7,11.8c1.5,3.5,3.4,7,5.6,10.2
		c2.4,3.4,4.9,6.6,7.8,9.5c3.1,3.1,6.5,5.8,10.2,8.2c3.4,2.2,7.2,4.2,11,5.8c3.5,1.4,7.3,2.6,11.1,3.3c0.9,0.2,1.8,0.3,2.7,0.4
		c0.3,0,0.5,0.1,0.9,0.1c0.6,0.1,1.3,0.2,1.9,0.2c0.3,0,0.6,0.1,0.9,0.1c0.9,0.1,1.7,0.1,2.5,0.2c1.2,0.1,2.2,0.1,3.4,0.1
		c4.5,0,8.8-0.4,13-1.4c4.1-0.9,8-2.1,11.8-3.7c3.5-1.5,7-3.4,10.2-5.6c3.4-2.4,6.6-4.9,9.5-7.8c3.1-3.1,5.8-6.5,8.2-10.2
		c2.2-3.4,4.2-7.2,5.8-11c1.4-3.5,2.6-7.3,3.3-11.1c0.7-4,1.2-8.1,1.2-12.3C140.1,72.3,139.7,67.9,138.8,63.7z M87.5,14.5
		c-0.2,0-0.4-0.1-0.5-0.1C87.2,14.5,87.3,14.5,87.5,14.5z M85.5,14.3c-0.4-0.1-1-0.1-1.4-0.2C84.5,14.1,85,14.2,85.5,14.3z M82.9,14
		c-0.7-0.1-1.6-0.1-2.4-0.2C81.3,13.7,82.1,13.8,82.9,14z M73.5,13.7c-0.9,0-1.7,0.1-2.6,0.2C71.8,13.8,72.6,13.8,73.5,13.7z
		 M69.7,14.1c-0.5,0.1-1,0.1-1.5,0.2C68.6,14.3,69.2,14.2,69.7,14.1z M66.6,14.5c-0.1,0.1-0.3,0.1-0.5,0.1
		C66.3,14.6,66.5,14.6,66.6,14.5z M66.6,139c0.2,0,0.4,0.1,0.5,0.1C67,139,66.8,139,66.6,139z M68.6,139.3c0.4,0.1,1,0.1,1.4,0.2
		C69.6,139.4,69.1,139.3,68.6,139.3z M71.2,139.5c0.7,0.1,1.6,0.1,2.4,0.2C72.8,139.7,72.1,139.6,71.2,139.5z"/>
	<path class="st0" d="M19.8,101.6c-1.6-3.7-2.8-7.6-3.7-11.7c-0.4-1.7-0.6-3.4-0.8-5.1L0.6,86.6c0.3,2.1,0.6,4.2,1,6.3
		c1,5,2.6,9.8,4.6,14.4c0.4,0.9,0.8,1.7,1.2,2.5l13.4-6.3C20.4,102.9,20.1,102.2,19.8,101.6z"/>
	<path class="st0" d="M134.3,52.6c1.6,3.7,2.8,7.6,3.7,11.7c0.4,1.7,0.6,3.4,0.8,5.1l14.7-1.8c-0.3-2.1-0.6-4.2-1-6.3
		c-1-5-2.6-9.8-4.6-14.4c-0.4-0.9-0.8-1.7-1.2-2.5l-13.4,6.3C133.7,51.2,134,51.9,134.3,52.6z"/>
	<path class="st0" d="M100.2,19.3c2.8,1.1,5.6,2.5,8.2,4l7.5-12.8c-3.2-1.9-6.6-3.6-10.1-5c-4-1.6-8.2-2.9-12.5-3.8l-3.1,14.5
		C93.6,16.9,97,18,100.2,19.3z"/>
	<path class="st1" d="M153.5,67.5l-14.7,1.8l0,0c-0.2-1.7-0.5-3.4-0.8-5.1c-0.8-4-2.1-7.9-3.7-11.7c-0.3-0.7-0.6-1.4-0.9-2l0,0
		l13.4-6.3c-1.6-3.5-3.5-6.8-5.6-9.9c-2.8-4.2-6-8.1-9.6-11.7c-3.8-3.8-7.9-7.1-12.4-10.1c-1.1-0.7-2.2-1.4-3.3-2l-7.5,12.8l0,0
		c-2.6-1.5-5.3-2.9-8.2-4C97,18,93.6,17,90.1,16.2l3.1-14.5c-0.4-0.1-0.8-0.2-1.1-0.2c-4.8-1-9.9-1.5-15-1.5
		c-5.4,0-10.8,0.6-15.9,1.6c-5,1-9.8,2.6-14.4,4.6c-4.4,1.9-8.5,4.1-12.5,6.8c-1.8,1.2-3.6,2.6-5.3,3.9l9.2,11.6
		c-1.8,1.4-3.5,3-5.1,4.6c-3,3-5.8,6.4-8.1,10l0.1-0.1l-12.4-8.1L12.5,35c-2.8,4.2-5.1,8.7-7,13.4c-1.7,4.4-3.1,8.9-4,13.6
		C0.5,66.9,0,71.9,0,77.1c0,3.2,0.2,6.4,0.6,9.6l14.7-1.8l0,0c0.2,1.7,0.5,3.4,0.8,5.1c0.8,4,2.1,7.9,3.7,11.7
		c0.3,0.7,0.6,1.4,0.9,2L7.3,110c1.6,3.5,3.5,6.8,5.6,9.9c2.8,4.2,6,8.1,9.6,11.7c3.8,3.8,7.9,7.1,12.4,10.1c1.1,0.7,2.2,1.4,3.3,2
		l7.5-12.8l0,0c2.6,1.5,5.3,2.9,8.2,4c3.5,1.4,7.2,2.5,11,3.3c-0.3-0.1-0.6-0.1-0.9-0.2l-3.1,14.5c0.4,0.1,0.8,0.2,1.1,0.2
		c4.9,1,9.9,1.5,15.1,1.5c5.4,0,10.8-0.6,15.9-1.6c5-1,9.8-2.6,14.4-4.6c4.4-1.9,8.5-4.1,12.5-6.8c1.8-1.2,3.6-2.6,5.3-3.9
		l-9.2-11.6c1.8-1.4,3.5-3,5.1-4.6c3-3,5.7-6.3,8-9.9l12.4,8.1l0.1-0.2c2.8-4.2,5.1-8.7,7-13.4c1.7-4.3,3.1-8.9,4-13.6
		c1-4.9,1.5-9.9,1.5-15.1C154.1,73.8,153.9,70.6,153.5,67.5z M132.5,48.8c-0.1-0.2-0.2-0.4-0.3-0.6
		C132.3,48.4,132.4,48.6,132.5,48.8z M130.2,44.6c-0.4-0.7-0.9-1.4-1.4-2.1C129.3,43.2,129.8,43.9,130.2,44.6z M131.4,46.8
		c-0.2-0.4-0.4-0.7-0.6-1.1C131,46,131.2,46.4,131.4,46.8z M42.5,25.3c-0.8,0.5-1.5,1-2.2,1.6C41,26.3,41.7,25.8,42.5,25.3z
		 M15.1,82.7V83V82.7z M14.8,78.9c0,0.2,0,0.3,0,0.5C14.8,79.2,14.8,79.1,14.8,78.9z M14.9,80.8c0,0.1,0,0.3,0,0.4
		C14.9,81.1,14.9,80.9,14.9,80.8z M21.6,105.3c0.1,0.2,0.2,0.4,0.3,0.6C21.8,105.7,21.7,105.5,21.6,105.3z M23.9,109.5
		c0.4,0.7,0.9,1.4,1.4,2.2C24.8,110.9,24.4,110.2,23.9,109.5z M22.7,107.4c0.2,0.4,0.4,0.7,0.6,1.1
		C23.1,108.1,22.9,107.7,22.7,107.4z M111.6,128.8c0.8-0.5,1.5-1,2.2-1.6C113.1,127.8,112.4,128.3,111.6,128.8z M122.4,106.6
		c-2.1,3.1-4.4,6.1-7.1,8.7c-2.5,2.5-5.3,4.8-8.2,6.7c-2.7,1.8-5.7,3.4-8.7,4.8c-3.2,1.4-6.6,2.5-10.1,3.2
		c-3.6,0.8-7.3,1.2-11.2,1.2c-3.6,0-7.2-0.4-10.6-1c-3.3-0.7-6.5-1.6-9.5-2.9c-3.3-1.3-6.5-3-9.4-4.9c-3.1-2.1-6.1-4.4-8.7-7.1
		c-2.5-2.5-4.8-5.3-6.7-8.2c-1.8-2.7-3.4-5.7-4.8-8.7c-1.4-3.2-2.5-6.6-3.2-10.1C23.4,84.7,23,81,23,77.1c0-3.6,0.4-7.2,1-10.6
		c0.7-3.3,1.6-6.5,2.8-9.5c1.3-3.3,3-6.5,4.9-9.4c2.1-3.1,4.4-6.1,7.1-8.7c2.5-2.5,5.3-4.8,8.2-6.7c2.7-1.8,5.7-3.4,8.7-4.8
		c3.2-1.4,6.6-2.5,10.1-3.2C69.4,23.4,73.1,23,77,23c3.6,0,7.2,0.4,10.6,1c3.3,0.7,6.5,1.6,9.5,2.8c3.3,1.3,6.5,3,9.4,4.9
		c3.1,2.1,6.1,4.4,8.7,7.1c2.5,2.5,4.8,5.3,6.7,8.2c1.8,2.7,3.4,5.7,4.8,8.7c1.4,3.2,2.5,6.6,3.2,10.1c0.8,3.6,1.2,7.3,1.2,11.2
		c0,3.6-0.4,7.2-1,10.6c-0.7,3.3-1.6,6.5-2.8,9.5C126,100.5,124.3,103.7,122.4,106.6z M139,71.1v0.3V71.1z M139.2,72.9
		c0,0.1,0,0.3,0,0.4C139.2,73.2,139.2,73.1,139.2,72.9z M139.3,74.8c0,0.1,0,0.3,0,0.4C139.3,75.1,139.3,74.9,139.3,74.8z"/>
	<path class="st0" d="M33,33c1.6-1.6,3.3-3.1,5.1-4.6l-9.2-11.6c-2.2,1.8-4.3,3.7-6.4,5.7c-3.7,3.7-7.1,7.8-10,12.2L25,42.9
		C27.3,39.4,30,36,33,33z"/>
	<path class="st6" d="M129.1,65.8c-0.7-3.4-1.8-6.7-3.1-10c-1.3-3-2.9-5.9-4.7-8.6c-1.9-2.9-4.2-5.6-6.6-8.1c-2.6-2.6-5.5-4.9-8.6-7
		c-2.9-1.9-6-3.5-9.3-4.8c-3-1.2-6.1-2.1-9.4-2.8c-3.3-0.6-6.8-1.1-10.4-1.1c-3.7,0-7.4,0.4-11,1.2c-3.4,0.7-6.7,1.8-10,3.1
		c-3,1.3-5.9,2.9-8.6,4.7c-2.9,1.9-5.6,4.2-8.1,6.6c-2.6,2.6-4.9,5.5-7,8.6c-1.9,2.9-3.5,6-4.8,9.3c-1.2,3-2.1,6.1-2.8,9.4
		c-0.6,3.3-1.1,6.8-1.1,10.4c0,3.7,0.4,7.4,1.2,11c0.7,3.4,1.8,6.7,3.1,10c1.3,3,2.9,5.9,4.7,8.6c1.9,2.9,4.2,5.6,6.6,8.1
		c2.6,2.6,5.5,4.9,8.6,7c2.9,1.9,6,3.5,9.3,4.8c3,1.2,6.1,2.1,9.4,2.8c2.6,0.5,5.1,0.9,7.8,1c-2.6-0.1-5.1-0.4-7.7-1
		c-3.2-0.6-6.3-1.6-9.3-2.8c-3.2-1.3-6.3-2.9-9.2-4.8c-3.1-2-5.9-4.3-8.5-6.8c-2.5-2.5-4.6-5.1-6.5-8c-1.8-2.7-3.3-5.6-4.6-8.5
		c-1.4-3.1-2.4-6.4-3.1-9.8c-0.7-3.5-1.2-7.2-1.2-10.8c0-3.5,0.3-7,1-10.3c0.6-3.2,1.6-6.3,2.8-9.3c1.3-3.2,2.9-6.3,4.8-9.2
		c2-3.1,4.3-5.9,6.8-8.5c2.5-2.5,5.1-4.6,8-6.5c2.7-1.8,5.6-3.3,8.5-4.6c3.1-1.4,6.4-2.4,9.8-3.1c3.5-0.7,7.2-1.2,10.8-1.2
		c3.5,0,7,0.3,10.3,1.1c3.2,0.6,6.3,1.6,9.3,2.8c3.2,1.3,6.3,2.9,9.2,4.8c3.1,2,5.9,4.3,8.5,6.8c2.5,2.5,4.6,5.1,6.5,8
		c1.8,2.7,3.3,5.6,4.6,8.5c1.4,3.1,2.4,6.4,3.1,9.8c0.7,3.5,1.2,7.2,1.2,10.8c0,3.5-0.3,7-1.1,10.3c-0.6,3.2-1.6,6.3-2.8,9.3
		c-1.3,3.2-2.9,6.3-4.8,9.2c-2,3.1-4.3,5.9-6.8,8.5c-2.5,2.5-5.1,4.6-8,6.5c-2.7,1.8-5.6,3.3-8.5,4.6c-3.1,1.4-6.4,2.4-9.8,3.1
		c-3.5,0.7-7.2,1.2-10.8,1.2c3.7,0,7.4-0.4,11-1.2c3.4-0.7,6.7-1.8,10-3.1c3-1.3,5.9-2.9,8.6-4.7c2.9-1.9,5.6-4.2,8.1-6.6
		c2.6-2.6,4.9-5.5,7-8.6c1.9-2.9,3.5-6,4.8-9.3c1.2-3,2.1-6.1,2.8-9.4c0.6-3.3,1.1-6.8,1.1-10.4C130.3,72.9,129.9,69.3,129.1,65.8z"
		/>
	<path class="st4" d="M27.7,44.6c-2.1,3.3-4,6.7-5.4,10.3c-1.4,3.4-2.4,6.8-3.1,10.4C18.5,69,18,72.9,18,76.8
		c0,4.1,0.4,8.1,1.3,12.1c0.7,3.7,1.9,7.5,3.4,11c1.4,3.3,3.1,6.5,5.1,9.5c2.1,3.2,4.6,6.2,7.4,9c3,3,6.1,5.5,9.5,7.7
		c3.3,2.1,6.7,4,10.3,5.4c3.4,1.4,6.8,2.4,10.4,3.1c3.9,0.7,7.7,1.2,11.6,1.2c4.1,0,8.1-0.4,12.1-1.3c3.7-0.7,7.5-1.9,11-3.4
		c3.3-1.4,6.5-3.1,9.5-5.1c3.2-2.1,6.2-4.6,9-7.4c3-3,5.5-6.1,7.7-9.5c2.1-3.3,4-6.7,5.4-10.3c1.4-3.4,2.4-6.8,3.1-10.4
		c0.7-3.9,1.2-7.7,1.2-11.6c0-4.1-0.4-8.1-1.3-12.1c-0.7-3.7-1.9-7.5-3.4-11c-1.4-3.3-3.1-6.5-5.1-9.5c-2.1-3.2-4.6-6.2-7.4-9
		c-3-3-6.1-5.5-9.5-7.7c-3.3-2.1-6.7-4-10.3-5.4c-3.4-1.4-6.8-2.4-10.4-3.1c-3.9-0.7-7.7-1.2-11.6-1.2c-4.1,0-8.1,0.4-12.1,1.3
		c-3.7,0.7-7.5,1.9-11,3.4c-3.3,1.4-6.5,3.1-9.5,5.1c-3.2,2.1-6.2,4.6-9,7.4C32.5,38,29.9,41.1,27.7,44.6z M55.7,26.9
		c3.3-1.4,6.7-2.5,10.2-3.2c3.6-0.7,7.4-1.2,11.1-1.2c3.5,0,7.1,0.3,10.6,1.1c3.2,0.6,6.4,1.6,9.5,2.8c3.3,1.3,6.4,2.9,9.4,4.9
		c3.1,2,6,4.4,8.7,7.1c2.6,2.6,4.8,5.4,6.7,8.2c1.8,2.8,3.4,5.8,4.7,8.8c1.4,3.3,2.5,6.7,3.2,10.2c0.7,3.6,1.2,7.4,1.2,11.1
		c0,3.5-0.3,7.1-1.1,10.6c-0.6,3.2-1.6,6.4-2.8,9.5c-1.3,3.3-2.9,6.4-4.9,9.4c-2,3.1-4.4,6-7.1,8.7c-2.6,2.6-5.4,4.8-8.2,6.7
		c-2.8,1.8-5.8,3.4-8.8,4.7c-3.3,1.4-6.7,2.5-10.2,3.2c-3.6,0.7-7.4,1.2-11.1,1.2c-3.5,0-7.1-0.3-10.6-1.1c-3.2-0.6-6.4-1.6-9.5-2.8
		c-3.3-1.3-6.4-2.9-9.4-4.9c-3.1-2-6-4.4-8.7-7.1c-2.6-2.6-4.8-5.4-6.7-8.2c-1.8-2.8-3.4-5.8-4.7-8.8c-1.4-3.3-2.5-6.7-3.2-10.2
		c-0.7-3.6-1.2-7.4-1.2-11.1c0-3.5,0.3-7.1,1.1-10.6c0.6-3.2,1.6-6.4,2.8-9.5c1.3-3.3,2.9-6.4,4.9-9.4c2-3.1,4.4-6,7.1-8.7
		c2.6-2.6,5.4-4.8,8.2-6.7C49.8,29.8,52.7,28.2,55.7,26.9z"/>
	<path class="st0" d="M121.3,47.2l3.9-2.6c-2.1-3.2-4.5-6.1-7.2-8.8l-3.3,3.3C117.1,41.6,119.4,44.2,121.3,47.2z"/>
	<path class="st1" d="M126,55.8l4.3-1.8c-1.4-3.3-3.1-6.4-5.1-9.3l-3.9,2.6C123.1,49.9,124.7,52.8,126,55.8z"/>
	<path class="st0" d="M129.1,65.8l4.6-1c-0.7-3.7-1.9-7.4-3.4-10.8l-4.3,1.8C127.4,59,128.5,62.3,129.1,65.8z"/>
	<path class="st1" d="M114.7,114.3l3.3,3.3c2.8-2.8,5.4-6,7.6-9.3l-4-2.6C119.6,108.9,117.3,111.8,114.7,114.3z"/>
	<path class="st1" d="M27.7,57l-4.4-1.7c-1.3,3.3-2.4,6.6-3,10.2l4.6,1C25.5,63.1,26.5,60,27.7,57z"/>
	<path class="st0" d="M25,87.7l-4.6,1c0.7,3.7,1.9,7.4,3.4,10.8l4.3-1.8C26.8,94.5,25.7,91.1,25,87.7z"/>
	<path class="st0" d="M24.9,66.3l-4.6-0.9c-0.7,3.6-1.1,7.5-1.1,11.3h4.7C23.8,73.1,24.1,69.7,24.9,66.3z"/>
	<path class="st1" d="M23.8,76.8h-4.7c0,4.1,0.4,8.1,1.3,12l4.6-1C24.2,84.2,23.8,80.5,23.8,76.8z"/>
	<path class="st1" d="M28.1,97.7l-4.3,1.8c1.4,3.3,3.1,6.4,5.1,9.3l3.9-2.6C31,103.5,29.4,100.8,28.1,97.7z"/>
	<path class="st0" d="M32.8,106.3l-3.9,2.6c2.1,3.2,4.5,6.1,7.2,8.8l3.3-3.3C37,111.9,34.7,109.2,32.8,106.3z"/>
	<path class="st0" d="M32.5,47.7l-4-2.6c-2,3.2-3.9,6.5-5.2,10.1l4.4,1.7C28.9,53.7,30.5,50.6,32.5,47.7z"/>
	<path class="st1" d="M77.1,23.5v-4.7c-4.1,0-8.1,0.4-12,1.3l1,4.6C69.6,23.9,73.3,23.5,77.1,23.5z"/>
	<path class="st1" d="M56.1,27.8l-1.8-4.3c-3.3,1.4-6.4,3.1-9.3,5.1l2.6,3.9C50.2,30.7,53.1,29,56.1,27.8z"/>
	<path class="st0" d="M66.1,24.7l-1-4.6c-3.7,0.7-7.4,1.9-10.8,3.4l1.8,4.3C59.3,26.5,62.7,25.4,66.1,24.7z"/>
	<path class="st1" d="M39.4,39.1l-3.3-3.3c-2.8,2.8-5.4,6-7.6,9.3l4,2.6C34.5,44.6,36.9,41.7,39.4,39.1z"/>
	<path class="st0" d="M47.6,32.5l-2.7-3.9c-3.2,2.1-6.1,4.5-8.8,7.2l3.3,3.3C41.9,36.6,44.6,34.4,47.6,32.5z"/>
	<path class="st1" d="M129.1,65.8c0.7,3.5,1.2,7.2,1.2,11h4.7c0-4.1-0.4-8.1-1.3-12L129.1,65.8z"/>
	<path class="st0" d="M129.2,87.2l4.6,1c0.7-3.6,1.1-7.5,1.1-11.3h-4.7C130.3,80.3,130,83.7,129.2,87.2z"/>
	<path class="st1" d="M114.7,39.1l3.3-3.3c-2.8-2.8-6-5.4-9.3-7.6l-2.6,4C109.2,34.2,112.1,36.5,114.7,39.1z"/>
	<path class="st1" d="M126.4,96.6l4.4,1.7c1.3-3.3,2.4-6.6,3-10.2l-4.6-1C128.6,90.4,127.7,93.5,126.4,96.6z"/>
	<path class="st0" d="M106.1,32.1l2.6-4c-3.2-2-6.5-3.9-10.1-5.2l-1.7,4.4C100.1,28.6,103.2,30.2,106.1,32.1z"/>
	<path class="st1" d="M96.9,27.3l1.7-4.4c-3.3-1.3-6.6-2.4-10.2-3l-1,4.6C90.7,25.2,93.8,26.2,96.9,27.3z"/>
	<path class="st0" d="M121.6,105.8l4,2.6c2-3.2,3.9-6.5,5.2-10.1l-4.4-1.7C125.2,99.8,123.6,102.9,121.6,105.8z"/>
	<path class="st0" d="M87.5,24.6l1-4.6c-3.6-0.7-7.5-1.1-11.3-1.1v4.7C80.6,23.5,84.1,23.8,87.5,24.6z"/>
	<path class="st0" d="M11.3,87.3c0,0.2,0,0.3,0.1,0.5C11.3,87.6,11.3,87.4,11.3,87.3z"/>
	<path class="st0" d="M142.8,65.8V66V65.8z"/>
	<path class="st5" d="M25.4,34.7c-1.4,1.7-2.8,3.6-4.1,5.5C22.6,38.3,23.9,36.4,25.4,34.7z"/>
	<path class="st5" d="M27.5,32.1c-0.7,0.7-1.4,1.6-2,2.4C26.3,33.6,26.9,32.9,27.5,32.1z"/>
	
		<linearGradient id="SVGID_3_" gradientUnits="userSpaceOnUse" x1="-1470.2974" y1="836.6367" x2="-1469.0853" y2="836.6367" gradientTransform="matrix(3.7452 -1.1097 1.1097 3.7452 4578.9355 -4665.7808)">
		<stop  offset="0" style="stop-color:#9FA3A5"/>
		<stop  offset="0.2936" style="stop-color:#C6C8C9"/>
		<stop  offset="0.5842" style="stop-color:#E5E6E7"/>
		<stop  offset="0.8296" style="stop-color:#F8F8F9"/>
		<stop  offset="1" style="stop-color:#FFFFFF"/>
	</linearGradient>
	<path class="st7" d="M8.4,109.4c-0.4-0.8-0.8-1.7-1.1-2.5c-1.9-4.5-3.5-9.3-4.5-14.2c-0.4-2-0.8-4.1-1-6.2l-1.1,0.1
		c0.3,2.1,0.6,4.2,1,6.3c1,5,2.6,9.8,4.6,14.4c0.4,0.9,0.8,1.7,1.2,2.5L8.4,109.4z"/>
	
		<linearGradient id="SVGID_4_" gradientUnits="userSpaceOnUse" x1="-1851.1309" y1="-192.8293" x2="-1849.9171" y2="-192.8293" gradientTransform="matrix(-6.7547 1.559 -1.559 -6.7547 -12649.4863 1638.1852)">
		<stop  offset="0" style="stop-color:#9FA3A5"/>
		<stop  offset="0.2936" style="stop-color:#C6C8C9"/>
		<stop  offset="0.5842" style="stop-color:#E5E6E7"/>
		<stop  offset="0.8296" style="stop-color:#F8F8F9"/>
		<stop  offset="1" style="stop-color:#FFFFFF"/>
	</linearGradient>
	<path class="st8" d="M146.9,47.2c1.9,4.5,3.5,9.3,4.5,14.2c0.4,2,0.8,4.1,1,6.2l1.1-0.1c-0.3-2.1-0.6-4.2-1-6.3
		c-1-5-2.6-9.8-4.6-14.4c-0.4-0.9-0.8-1.7-1.2-2.5l-1,0.5C146.1,45.5,146.5,46.3,146.9,47.2z"/>
	
		<linearGradient id="SVGID_5_" gradientUnits="userSpaceOnUse" x1="-1488.5178" y1="-164.9473" x2="-1487.3065" y2="-164.9473" gradientTransform="matrix(-2.6351 6.3796 -6.3796 -2.6351 -4867.6372 9061.6563)">
		<stop  offset="0" style="stop-color:#9FA3A5"/>
		<stop  offset="0.2936" style="stop-color:#C6C8C9"/>
		<stop  offset="0.5842" style="stop-color:#E5E6E7"/>
		<stop  offset="0.8296" style="stop-color:#F8F8F9"/>
		<stop  offset="1" style="stop-color:#FFFFFF"/>
	</linearGradient>
	<path class="st9" d="M105.3,6.6c3.5,1.4,6.8,3,10,4.9l0.6-1c-3.2-1.9-6.6-3.6-10.1-5c-4-1.6-8.2-2.9-12.5-3.8L93,2.8
		C97.3,3.7,101.4,5,105.3,6.6z"/>
	<path class="st4" d="M1.7,86.5c-0.4-3.1-0.6-6.2-0.6-9.4c0-5.1,0.5-10,1.5-14.8c0.9-4.6,2.3-9.1,4-13.4c1.9-4.7,4.2-9.1,6.9-13.2
		l0.1-0.2l-0.9-0.6L12.5,35c-2.8,4.2-5.1,8.7-7,13.4c-1.7,4.4-3.1,8.9-4,13.6C0.5,66.9,0,71.9,0,77.1c0,3.2,0.2,6.4,0.6,9.6
		L1.7,86.5z"/>
	<path class="st4" d="M38.8,142.7c-1.1-0.6-2.2-1.3-3.2-2c-4.4-2.9-8.5-6.2-12.2-9.9c-3.5-3.5-6.7-7.4-9.5-11.5
		c-2.1-3.1-3.9-6.4-5.5-9.8l-1,0.5c1.6,3.5,3.5,6.8,5.6,9.9c2.8,4.2,6,8.1,9.6,11.7c3.8,3.8,7.9,7.1,12.4,10.1
		c1.1,0.7,2.2,1.4,3.3,2L38.8,142.7z"/>
	<path class="st4" d="M153.5,67.5l-1.1,0.1l0,0c0.4,3.1,0.6,6.2,0.6,9.4c0,5.1-0.5,10-1.5,14.9c-0.9,4.6-2.3,9.1-4,13.4
		c-1.9,4.7-4.2,9.1-6.9,13.2l-0.1,0.2l0.9,0.6l0.1-0.2c2.8-4.2,5.1-8.7,7-13.4c1.7-4.3,3.1-8.9,4-13.6c1-4.9,1.5-9.9,1.5-15.1
		C154.1,73.8,153.9,70.6,153.5,67.5z"/>
	<path class="st4" d="M115.3,11.4c1.1,0.6,2.2,1.3,3.2,2c4.4,2.9,8.5,6.2,12.2,9.9c3.5,3.5,6.7,7.4,9.5,11.5
		c2.1,3.1,3.9,6.4,5.5,9.8l1-0.5c-1.6-3.5-3.5-6.8-5.6-9.9c-2.8-4.2-6-8.1-9.6-11.7c-3.8-3.8-7.9-7.1-12.4-10.1
		c-1.1-0.7-2.2-1.4-3.3-2L115.3,11.4z"/>
	<path class="st4" d="M29.6,17.8c1.7-1.4,3.5-2.7,5.3-3.9c3.9-2.6,8-4.8,12.3-6.7c4.5-1.9,9.3-3.5,14.2-4.5
		c5.1-1.1,10.3-1.6,15.7-1.6c5.1,0,10,0.5,14.8,1.5c0.4,0.1,0.7,0.2,1.1,0.2l0.2-1.1c-0.4-0.1-0.8-0.2-1.1-0.2
		c-4.8-1-9.9-1.5-15-1.5c-5.4,0-10.8,0.6-15.9,1.6c-5,1-9.8,2.6-14.4,4.6c-4.4,1.9-8.5,4.1-12.5,6.8c-1.8,1.2-3.6,2.6-5.3,3.9
		L29.6,17.8z"/>
	
		<linearGradient id="SVGID_6_" gradientUnits="userSpaceOnUse" x1="-1380.6638" y1="237.7263" x2="-1379.4485" y2="237.7263" gradientTransform="matrix(6.2075 5.75 -5.75 6.2075 9952.1484 6483.3784)">
		<stop  offset="0" style="stop-color:#9FA3A5"/>
		<stop  offset="0.2936" style="stop-color:#C6C8C9"/>
		<stop  offset="0.5842" style="stop-color:#E5E6E7"/>
		<stop  offset="0.8296" style="stop-color:#F8F8F9"/>
		<stop  offset="1" style="stop-color:#FFFFFF"/>
	</linearGradient>
	<path class="st10" d="M23.4,23.4c2-2,4.1-3.8,6.3-5.6L29,16.9c-2.2,1.8-4.3,3.7-6.4,5.7c-3.7,3.7-7.1,7.8-10,12.2l0.9,0.6
		C16.4,31.1,19.7,27,23.4,23.4z"/>
	<path class="st5" d="M58.4,12.1c0-1.7,1.4-3.1,3.1-3.1s3.1,1.4,3.1,3.1s-1.4,3.1-3.1,3.1C59.8,15.3,58.4,13.8,58.4,12.1z"/>
	<path class="st5" d="M8.2,65.3c0-1.7,1.4-3.1,3.1-3.1s3.1,1.4,3.1,3.1s-1.4,3.1-3.1,3.1C9.6,68.4,8.2,67,8.2,65.3z"/>
	<path class="st5" d="M138.8,92.4c0-1.7,1.4-3.1,3.1-3.1c1.7,0,3.1,1.4,3.1,3.1s-1.4,3.1-3.1,3.1C140.2,95.6,138.8,94.2,138.8,92.4z
		"/>
	<path class="st5" d="M123.3,32.5c0-1.7,1.4-3.1,3.1-3.1c1.7,0,3.1,1.4,3.1,3.1c0,1.7-1.4,3.1-3.1,3.1
		C124.7,35.7,123.3,34.3,123.3,32.5z"/>
	<path class="st4" d="M121.6,105.8c1.9-3,3.5-6.1,4.8-9.3c1.2-3.1,2.1-6.2,2.8-9.4c0.6-3.4,1.1-7,1.1-10.4c0-3.6-0.4-7.4-1.2-10.9
		c-0.7-3.4-1.7-6.7-3.1-10c-1.3-3-2.8-5.9-4.6-8.7c-0.4-0.6-0.9-1.3-1.3-1.9c-0.1-0.2-0.3-0.4-0.4-0.5c-0.3-0.4-0.6-0.9-1.1-1.3
		c-0.1-0.2-0.3-0.4-0.4-0.6c-0.4-0.5-1-1.1-1.4-1.6l-0.2-0.2c-0.5-0.6-1.2-1.3-1.8-1.9c-0.6-0.6-1.3-1.3-2-1.9l0,0l0,0l0,0l-0.2-0.1
		c-0.5-0.5-1.2-1-1.7-1.5c-0.2-0.2-0.4-0.3-0.6-0.5c-0.4-0.3-1-0.7-1.4-1.1c-0.2-0.1-0.4-0.3-0.6-0.4c-0.6-0.4-1.3-1-2-1.4
		c-3-1.9-6.1-3.5-9.3-4.8c-3.1-1.2-6.2-2.1-9.4-2.8c-3.4-0.6-7-1.1-10.4-1.1c-3.6,0-7.4,0.4-10.9,1.2c-3.4,0.7-6.7,1.7-10,3.1
		c-3,1.3-5.9,2.8-8.7,4.6c-2.9,1.9-5.6,4.1-8.1,6.6c-2.7,2.7-4.9,5.6-7,8.6c-1.9,3-3.5,6.1-4.8,9.3c-1.2,3.1-2.1,6.2-2.8,9.4
		c-0.6,3.4-1.1,7-1.1,10.4c0,3.6,0.4,7.4,1.2,10.9c0.7,3.4,1.7,6.7,3.1,10c1.3,3,2.8,5.9,4.6,8.7c0.4,0.6,0.9,1.3,1.3,1.9
		c0.1,0.2,0.3,0.4,0.4,0.5c0.3,0.4,0.6,0.9,1.1,1.3c0.1,0.2,0.3,0.4,0.4,0.6c0.4,0.5,1,1.1,1.4,1.6c0.6,0.7,1.3,1.4,1.9,2
		c2.7,2.7,5.6,4.9,8.6,7c3,1.9,6.1,3.5,9.3,4.8c3.1,1.2,6.2,2.1,9.4,2.8c3.4,0.6,7,1.1,10.4,1.1c3.6,0,7.4-0.4,10.9-1.2
		c3.4-0.7,6.7-1.7,10-3.1c3-1.3,5.9-2.8,8.7-4.6c2.9-1.9,5.6-4.1,8.1-6.6C117.3,111.8,119.7,108.9,121.6,105.8z M120.4,45.8
		c-0.1-0.1-0.2-0.2-0.3-0.4C120.2,45.5,120.3,45.7,120.4,45.8z M119.4,44.5c-0.2-0.3-0.5-0.6-0.7-1
		C118.8,43.8,119.2,44.1,119.4,44.5z M118,42.7c-0.4-0.5-0.9-1.1-1.3-1.5C117.1,41.7,117.6,42.2,118,42.7z M112.5,37.1
		c-0.5-0.5-1.1-1-1.6-1.4C111.5,36.1,112,36.5,112.5,37.1z M110.1,34.9c-0.3-0.2-0.6-0.5-1-0.7C109.4,34.4,109.7,34.7,110.1,34.9z
		 M107.9,33.4c-0.1-0.1-0.3-0.2-0.4-0.3C107.7,33.2,107.8,33.3,107.9,33.4z M33.8,107.6c0.1,0.1,0.2,0.3,0.3,0.4
		C33.9,107.9,33.8,107.7,33.8,107.6z M34.7,109c0.2,0.3,0.5,0.6,0.7,1C35.3,109.6,34.9,109.3,34.7,109z M36.1,110.7
		c0.4,0.5,0.9,1.1,1.3,1.5C37,111.8,36.5,111.2,36.1,110.7z"/>
	<path class="st11" d="M128,66c-0.7-3.4-1.7-6.6-3.1-9.7c-1.3-3-2.8-5.8-4.6-8.5c-1.9-2.9-4.1-5.5-6.5-7.9c-2.6-2.6-5.4-4.8-8.3-6.7
		c-2.9-1.8-5.9-3.4-9.1-4.7c-2.9-1.2-6-2.1-9.2-2.8c-0.7-0.1-1.5-0.3-2.2-0.4c-0.2,0-0.4-0.1-0.7-0.1c-0.5-0.1-1.1-0.1-1.6-0.2
		c-0.2,0-0.5-0.1-0.7-0.1c-0.6-0.1-1.4-0.1-2-0.1h-0.2c-0.9,0-1.7-0.1-2.6-0.1s-1.8,0-2.7,0.1l0,0l0,0l0,0h-0.2
		c-0.7,0-1.5,0.1-2.2,0.2c-0.2,0-0.5,0.1-0.7,0.1c-0.5,0.1-1.2,0.1-1.7,0.2c-0.2,0-0.5,0.1-0.7,0.1c-0.7,0.1-1.6,0.3-2.4,0.4
		c-3.4,0.7-6.6,1.7-9.7,3.1c-3,1.3-5.8,2.8-8.5,4.6c-2.9,1.9-5.5,4.1-7.9,6.5c-2.6,2.6-4.8,5.4-6.7,8.3c-1.8,2.9-3.4,5.9-4.7,9.1
		c-1.2,2.9-2.1,6-2.8,9.2c-0.6,3.3-1,6.7-1,10.2c0,3.6,0.4,7.3,1.1,10.7c0.7,3.4,1.7,6.6,3.1,9.7c1.3,3,2.8,5.8,4.6,8.5
		c1.9,2.9,4.1,5.5,6.5,7.9c2.6,2.6,5.4,4.8,8.3,6.7c2.9,1.8,5.9,3.4,9.1,4.7c2.9,1.2,6,2.1,9.2,2.8c0.7,0.1,1.5,0.3,2.2,0.4
		c0.2,0,0.4,0.1,0.7,0.1c0.5,0.1,1.1,0.1,1.6,0.2c0.2,0,0.5,0.1,0.7,0.1c0.6,0.1,1.4,0.1,2,0.1c1,0,1.8,0.1,2.8,0.1
		c3.6,0,7.3-0.4,10.7-1.1c3.4-0.7,6.6-1.7,9.7-3.1c3-1.3,5.8-2.8,8.5-4.6c2.9-1.9,5.5-4.1,7.9-6.5c2.6-2.6,4.8-5.4,6.7-8.3
		c1.8-2.9,3.4-5.9,4.7-9.1c1.2-2.9,2.1-6,2.8-9.2c0.6-3.3,1-6.7,1-10.2C129.1,73,128.8,69.5,128,66z M85.7,25.4
		c-0.1-0.1-0.3-0.1-0.4-0.1C85.3,25.3,85.6,25.3,85.7,25.4z M84.1,25.1c-0.4,0-0.7-0.1-1.2-0.1C83.2,25,83.6,25.1,84.1,25.1z
		 M81.8,24.9c-0.6-0.1-1.3-0.1-1.9-0.1C80.5,24.8,81.2,24.8,81.8,24.9z M71,25c-0.4,0-0.9,0.1-1.3,0.2C70.1,25.1,70.6,25.1,71,25z
		 M68.4,25.4c-0.2,0-0.3,0.1-0.4,0.1C68.1,25.4,68.3,25.4,68.4,25.4z M68.4,128.2c0.1,0,0.3,0.1,0.4,0.1
		C68.8,128.2,68.6,128.2,68.4,128.2z M70.1,128.4c0.4,0,0.7,0.1,1.2,0.1C70.9,128.5,70.5,128.4,70.1,128.4z M72.3,128.6
		c0.6,0.1,1.3,0.1,1.9,0.1C73.6,128.7,72.9,128.7,72.3,128.6z"/>
	<circle class="st12" cx="77.1" cy="77.1" r="53.3"/>
	<g>
		<path class="st13" d="M74.1,74.6L74.1,74.6L74.1,74.6z"/>
		<path class="st13" d="M95.9,74.6L95.9,74.6L95.9,74.6z"/>
	</g>
	<g>
		<path class="st13" d="M115.8,99.3l-12.6-25.4c-0.2-0.2-0.2-0.2-0.3-0.2H92.1l-4.5,4.9c-0.2,0,10.6-0.2,12.3-0.2
			c0.2,0,0.2,0.2,0.3,0.2l7.9,16.2c0.2,0.2-0.2,0.5-0.3,0.5H79.5h-4H47.1c-0.2,0-0.3-0.2-0.3-0.5l7.9-16.2c0.2-0.2,0.2-0.2,0.3-0.2
			c1.7,0,12.5,0.2,12.3,0.2l-4.5-4.7h-11c-0.2,0-0.2,0.2-0.3,0.2L39.2,99.3c-0.2,0.2,0.2,0.5,0.3,0.5h35.9h4h35.9
			C115.8,99.8,116,99.6,115.8,99.3z"/>
		<path class="st1" d="M77.4,40.5c-9.6,0-17.5,7.9-17.5,17.5c0,3.2,1,6.4,2.5,9.1c2.4,4,5.7,6.6,7.7,9.1c2.7,3.5,5.6,8.9,6.4,10.4
			c0.2,0.2,0.2,0.3,0.5,0.3c0.3,0.2,0.7-0.2,0.8-0.3c0.8-1.5,3.5-7.1,6.4-10.4c2-2.5,5.6-5.1,7.7-9.1c1.9-2.5,2.9-5.6,2.9-8.9
			C95,48.4,87,40.5,77.4,40.5z M77.4,67.3c-5.1,0-9.1-4-9.1-9.1s4-9.1,9.1-9.1s9.1,4,9.1,9.1C86.7,63.2,82.5,67.3,77.4,67.3z"/>
	</g>
</g>
<g>
	<path class="st4" d="M27.8,199h-2v-10.4h-3.5v-1.7h9v1.7h-3.5V199z"/>
	<path class="st4" d="M41.2,194.4c0,0.8-0.1,1.4-0.3,2s-0.5,1.1-0.9,1.5s-0.8,0.7-1.4,0.9c-0.5,0.2-1.1,0.3-1.8,0.3
		c-0.6,0-1.2-0.1-1.7-0.3s-1-0.5-1.4-0.9s-0.7-0.9-0.9-1.5s-0.3-1.3-0.3-2c0-1,0.2-1.9,0.5-2.6s0.8-1.2,1.5-1.6
		c0.6-0.4,1.4-0.6,2.3-0.6c0.8,0,1.6,0.2,2.2,0.6c0.6,0.4,1.1,0.9,1.5,1.6C40.9,192.5,41.2,193.4,41.2,194.4z M34.4,194.4
		c0,0.7,0.1,1.2,0.2,1.7c0.2,0.5,0.4,0.8,0.8,1.1c0.3,0.3,0.8,0.4,1.3,0.4s1-0.1,1.3-0.4c0.3-0.2,0.6-0.6,0.7-1.1
		c0.2-0.5,0.2-1,0.2-1.7s-0.1-1.2-0.2-1.7c-0.2-0.5-0.4-0.8-0.7-1.1c-0.3-0.2-0.8-0.4-1.3-0.4c-0.8,0-1.4,0.3-1.8,0.8
		C34.7,192.6,34.4,193.4,34.4,194.4z"/>
	<path class="st4" d="M45.3,186.1v6.2c0,0.3,0,0.6,0,0.9c0,0.3,0,0.6-0.1,0.9l0,0c0.1-0.2,0.3-0.4,0.5-0.7s0.4-0.5,0.6-0.7l2.8-3
		h2.3l-3.7,3.9l3.9,5.2h-2.3l-2.9-4l-1.1,0.9v3.1h-1.9V186h1.9V186.1L45.3,186.1z"/>
	<path class="st4" d="M56.7,189.7c0.8,0,1.5,0.2,2.1,0.5s1,0.8,1.3,1.4c0.3,0.6,0.5,1.4,0.5,2.2v1h-6.1c0,0.9,0.3,1.6,0.7,2
		c0.5,0.5,1.1,0.7,1.9,0.7c0.6,0,1.1-0.1,1.6-0.2s0.9-0.3,1.4-0.5v1.6c-0.5,0.2-0.9,0.4-1.4,0.5s-1,0.1-1.7,0.1
		c-0.9,0-1.7-0.2-2.4-0.5s-1.2-0.9-1.6-1.6c-0.4-0.7-0.6-1.6-0.6-2.6s0.2-1.9,0.5-2.6c0.3-0.7,0.8-1.3,1.5-1.6
		C55.1,189.9,55.8,189.7,56.7,189.7z M56.7,191.1c-0.6,0-1.1,0.2-1.5,0.6c-0.4,0.4-0.6,1-0.7,1.7h4.2c0-0.5-0.1-0.9-0.2-1.2
		c-0.1-0.4-0.4-0.6-0.7-0.8C57.4,191.2,57.1,191.1,56.7,191.1z"/>
	<path class="st4" d="M67.4,189.7c1,0,1.8,0.3,2.4,0.8s0.9,1.4,0.9,2.6v6h-1.9v-5.6c0-0.7-0.1-1.2-0.4-1.6c-0.3-0.4-0.7-0.5-1.4-0.5
		c-0.9,0-1.5,0.3-1.8,0.8s-0.5,1.3-0.5,2.4v4.5h-1.9V190h1.5l0.3,1.2h0.1c0.2-0.3,0.4-0.6,0.7-0.8c0.3-0.2,0.6-0.4,1-0.5
		C66.7,189.7,67.1,189.7,67.4,189.7z"/>
	<path class="st4" d="M78.1,186.9h3.6c1.6,0,2.7,0.2,3.5,0.7s1.2,1.2,1.2,2.3c0,0.5-0.1,0.9-0.2,1.2c-0.2,0.4-0.4,0.7-0.7,0.9
		s-0.7,0.4-1.1,0.5v0.1c0.5,0.1,0.9,0.2,1.2,0.4c0.4,0.2,0.7,0.5,0.9,0.9c0.2,0.4,0.3,0.9,0.3,1.5c0,0.7-0.2,1.4-0.5,1.9
		s-0.8,0.9-1.5,1.2c-0.6,0.3-1.4,0.4-2.3,0.4h-4.3L78.1,186.9L78.1,186.9L78.1,186.9z M80.1,191.9H82c0.9,0,1.5-0.1,1.9-0.4
		c0.3-0.3,0.5-0.7,0.5-1.3s-0.2-1-0.6-1.2c-0.4-0.3-1.1-0.4-1.9-0.4h-1.7L80.1,191.9L80.1,191.9L80.1,191.9z M80.1,193.5v3.8h2.1
		c0.9,0,1.6-0.2,1.9-0.5c0.4-0.4,0.6-0.8,0.6-1.5c0-0.4-0.1-0.7-0.3-1s-0.4-0.5-0.8-0.6c-0.4-0.2-0.9-0.2-1.5-0.2H80.1z"/>
	<path class="st4" d="M95.9,199h-6.8v-12.1h6.8v1.7h-4.8v3.3h4.5v1.7h-4.5v3.8h4.8V199z"/>
	<path class="st4" d="M102.1,186.9c1.6,0,2.7,0.3,3.4,1c0.7,0.6,1.1,1.5,1.1,2.7c0,0.5-0.1,1-0.2,1.5c-0.2,0.5-0.4,0.9-0.8,1.2
		c-0.4,0.4-0.9,0.6-1.5,0.9c-0.6,0.2-1.3,0.3-2.2,0.3h-1.3v4.5h-2v-12.1L102.1,186.9L102.1,186.9z M101.9,188.6h-1.4v4.2h1.1
		c0.6,0,1.1-0.1,1.6-0.2c0.5-0.1,0.8-0.4,1-0.7s0.3-0.7,0.3-1.3c0-0.7-0.2-1.2-0.6-1.6C103.4,188.7,102.9,188.6,101.9,188.6z"/>
	<path class="st4" d="M107.9,195.3v-1.6h4.3v1.6H107.9z"/>
	<path class="st4" d="M121.8,199h-8.2v-1.5l3.1-3.2c0.6-0.6,1.1-1.1,1.5-1.6c0.4-0.4,0.7-0.9,0.9-1.3c0.2-0.4,0.3-0.8,0.3-1.3
		c0-0.6-0.2-1-0.5-1.3s-0.8-0.4-1.3-0.4s-1,0.1-1.4,0.3s-0.9,0.5-1.4,0.9l-1.1-1.3c0.3-0.3,0.7-0.5,1.1-0.8c0.4-0.2,0.8-0.4,1.3-0.6
		c0.5-0.1,1-0.2,1.6-0.2c0.8,0,1.4,0.1,2,0.4s1,0.6,1.3,1.1s0.4,1,0.4,1.7c0,0.6-0.1,1.2-0.4,1.8c-0.3,0.5-0.6,1.1-1.1,1.6
		s-1,1.1-1.7,1.7l-2.1,2v0.1h5.7L121.8,199L121.8,199z"/>
	<path class="st4" d="M131.4,192.9c0,1-0.1,1.8-0.2,2.6c-0.2,0.8-0.4,1.4-0.7,1.9s-0.7,0.9-1.3,1.2c-0.5,0.3-1.2,0.4-1.9,0.4
		c-0.9,0-1.7-0.2-2.3-0.7c-0.6-0.5-1.1-1.2-1.3-2.1c-0.3-0.9-0.4-2-0.4-3.3s0.1-2.4,0.4-3.3c0.3-0.9,0.7-1.6,1.3-2.1
		c0.6-0.5,1.4-0.7,2.4-0.7c0.9,0,1.7,0.2,2.3,0.7s1.1,1.2,1.4,2.1C131.3,190.5,131.4,191.6,131.4,192.9z M125.1,192.9
		c0,1,0.1,1.9,0.2,2.5c0.1,0.7,0.4,1.2,0.7,1.5c0.3,0.3,0.7,0.5,1.3,0.5c0.5,0,0.9-0.2,1.3-0.5c0.3-0.3,0.5-0.8,0.7-1.5
		c0.1-0.7,0.2-1.5,0.2-2.6c0-1-0.1-1.9-0.2-2.5c-0.1-0.7-0.4-1.2-0.7-1.5s-0.7-0.5-1.3-0.5c-0.5,0-0.9,0.2-1.3,0.5
		c-0.3,0.3-0.5,0.9-0.7,1.5C125.3,191.1,125.1,191.9,125.1,192.9z"/>
</g>
<g>
	<path class="st4" d="M41.8,178.9h-3.9v-18.8h10.8v3.3h-6.9v4.8h6.4v3.3h-6.4C41.8,171.5,41.8,178.9,41.8,178.9z"/>
	<path class="st4" d="M60.1,164.2c0.2,0,0.4,0,0.7,0s0.5,0,0.6,0.1l-0.3,3.7c-0.1,0-0.3-0.1-0.5-0.1s-0.4,0-0.6,0
		c-0.5,0-1,0.1-1.5,0.2s-0.9,0.3-1.3,0.6s-0.7,0.7-0.9,1.1c-0.2,0.5-0.3,1-0.3,1.7v7.3h-4v-14.4h3l0.6,2.4h0.2
		c0.3-0.5,0.6-0.9,1.1-1.3s0.9-0.7,1.5-1C58.8,164.3,59.4,164.2,60.1,164.2z"/>
	<path class="st4" d="M69.9,164.2c1.3,0,2.5,0.3,3.4,0.8c1,0.5,1.7,1.3,2.2,2.2c0.5,1,0.8,2.2,0.8,3.6v1.9H67c0,1.1,0.4,2,1,2.6
		s1.5,0.9,2.6,0.9c0.9,0,1.8-0.1,2.5-0.3s1.5-0.5,2.4-0.8v3c-0.7,0.4-1.5,0.6-2.2,0.8c-0.8,0.2-1.7,0.2-2.8,0.2
		c-1.4,0-2.7-0.3-3.8-0.8c-1.1-0.5-2-1.3-2.6-2.4c-0.6-1.1-0.9-2.5-0.9-4.1c0-1.7,0.3-3.1,0.9-4.2c0.6-1.1,1.4-2,2.4-2.5
		C67.4,164.5,68.6,164.2,69.9,164.2z M69.9,167c-0.8,0-1.4,0.2-1.9,0.7s-0.8,1.3-0.9,2.3h5.5c0-0.6-0.1-1.1-0.3-1.6
		c-0.2-0.5-0.5-0.8-0.9-1.1C71.1,167.1,70.6,167,69.9,167z"/>
	<path class="st4" d="M85.5,164.2c1.3,0,2.5,0.3,3.4,0.8c1,0.5,1.7,1.3,2.2,2.2c0.5,1,0.8,2.2,0.8,3.6v1.9h-9.3c0,1.1,0.4,2,1,2.6
		s1.5,0.9,2.6,0.9c0.9,0,1.8-0.1,2.5-0.3s1.5-0.5,2.4-0.8v3c-0.7,0.4-1.5,0.6-2.2,0.8c-0.8,0.2-1.7,0.2-2.8,0.2
		c-1.4,0-2.7-0.3-3.8-0.8c-1.1-0.5-2-1.3-2.6-2.4c-0.6-1.1-0.9-2.5-0.9-4.1c0-1.7,0.3-3.1,0.9-4.2s1.4-2,2.4-2.5
		C82.9,164.5,84.1,164.2,85.5,164.2z M85.5,167c-0.8,0-1.4,0.2-1.9,0.7s-0.8,1.3-0.9,2.3h5.5c0-0.6-0.1-1.1-0.3-1.6
		c-0.2-0.5-0.5-0.8-0.9-1.1C86.6,167.1,86.1,167,85.5,167z"/>
	<path class="st4" d="M99,178.9h-3.9v-20H99V178.9z"/>
	<path class="st4" d="M116.2,171.6c0,1.2-0.2,2.3-0.5,3.2s-0.8,1.7-1.4,2.3s-1.4,1.1-2.2,1.4c-0.9,0.3-1.8,0.5-2.9,0.5
		c-1,0-1.9-0.2-2.8-0.5c-0.8-0.3-1.6-0.8-2.2-1.4s-1.1-1.4-1.4-2.3c-0.3-0.9-0.5-2-0.5-3.2c0-1.6,0.3-2.9,0.8-4.1
		c0.6-1.1,1.4-1.9,2.4-2.5s2.3-0.9,3.7-0.9c1.3,0,2.5,0.3,3.6,0.9c1,0.6,1.9,1.4,2.5,2.5S116.2,170,116.2,171.6z M106.3,171.6
		c0,0.9,0.1,1.7,0.3,2.4c0.2,0.6,0.5,1.1,1,1.5s1,0.5,1.7,0.5s1.3-0.2,1.7-0.5c0.4-0.3,0.8-0.8,1-1.5c0.2-0.6,0.3-1.4,0.3-2.4
		s-0.1-1.7-0.3-2.4c-0.2-0.6-0.5-1.1-1-1.4c-0.4-0.3-1-0.5-1.7-0.5c-1,0-1.8,0.4-2.3,1.1C106.5,169.1,106.3,170.2,106.3,171.6z"/>
</g>
</svg>
