<?xml version="1.0" encoding="utf-8"?>
<!-- Generator: Adobe Illustrator 24.1.1, SVG Export Plug-In . SVG Version: 6.00 Build 0)  -->
<svg version="1.1" id="Layer_1" xmlns="http://www.w3.org/2000/svg" xmlns:xlink="http://www.w3.org/1999/xlink" x="0px" y="0px"
	 width="51.6px" height="51.6px" viewBox="0 0 51.6 51.6" style="enable-background:new 0 0 51.6 51.6;" xml:space="preserve">
<style type="text/css">
	.st0{fill:#FFFFFF;}
	.st1{fill:#1A154C;}
	.st2{fill:#00FFFF;stroke:#000000;stroke-width:0.6721;stroke-miterlimit:10;}
	.st3{fill-rule:evenodd;clip-rule:evenodd;}
	.st4{fill:#00FFFF;stroke:#000000;stroke-width:0.6721;stroke-linecap:round;stroke-linejoin:round;stroke-miterlimit:10;}
	.st5{fill:none;stroke:#000000;stroke-width:0.6722;stroke-linecap:round;stroke-linejoin:round;stroke-miterlimit:10;}
	.st6{fill:#00FFFF;}
	.st7{fill:#00FFFF;stroke:#000000;stroke-width:0.6722;stroke-miterlimit:10;}
	.st8{fill:#00FFFF;stroke:#000000;stroke-width:0.6722;stroke-linecap:round;stroke-linejoin:round;stroke-miterlimit:10;}
</style>
<circle id="Ellipse_70_1_" class="st0" cx="25.8" cy="25.8" r="25.8"/>
<g>
	<circle id="Ellipse_70" class="st0" cx="25.8" cy="25.8" r="22.7"/>
	<path id="Icon_ionic-ios-arrow-dropup-circle" class="st1" d="M25.8,49.7c13.2,0,24-10.7,24-24c0-13.2-10.7-24-24-24
		c-13.2,0-24,10.7-24,24l0,0C1.8,39,12.6,49.7,25.8,49.7L25.8,49.7z M25.8,21.6L16.5,31c-0.9,0.9-2.3,0.8-3.1-0.1s-0.8-2.2,0-3.1
		l11-11c0.8-0.8,2.2-0.9,3.1-0.1l10.9,10.8c0.9,0.9,0.9,2.3,0,3.1c-0.9,0.9-2.3,0.9-3.1,0l0,0L25.8,21.6z"/>
</g>
<path class="st2" d="M115.5,32.7C115.5,32.7,115.5,32.8,115.5,32.7c0,0.2-0.3,2-1.8,2.8c-1.5,0.8-1.8-2.6-1.1-5.6
	c0.7-3,2.4-3.5,3.3-2.3C115.9,27.7,116.2,29,115.5,32.7z"/>
<g id="_x3C_Trazado_x3E__11_">
	<path class="st0" d="M110.7,45.7c-0.8-0.4-2.4-0.8-4.8-0.8c-0.6,0-1.3,0-2,0.1l0.2-6.8l6.2,0L110.7,45.7z"/>
	<path d="M109.9,38.6l0.4,6.5c-0.9-0.3-2.4-0.6-4.4-0.6c-0.5,0-1,0-1.6,0.1l0.2-5.9L109.9,38.6 M110.7,37.8l-6.9,0l-0.2,7.6
		c0.9-0.1,1.7-0.2,2.4-0.2c3.7,0,5.2,1.1,5.2,1.1L110.7,37.8L110.7,37.8z"/>
</g>
<path id="_x3C_Trazado_x3E__10_" class="st3" d="M101.5,44.3c6.5-3.1,12.1-1,12.1-1c1.4,18.1,4.3,27.1,5.3,30.9c0,0,3,6.8-0.3,10.5
	c-3.9,4.3-9.3,3.6-10.6-0.5C104.3,72,101.7,44.1,101.5,44.3z"/>
<path class="st4" d="M116.5,28.9c1-7,0-22.7-1.7-22s-2.1,15.8-2.1,15.8c-0.1-0.2-0.1-1.2-0.2-1.4c0,0-1.4-8.1-5.9-2.9
	c0,0-2.3,3.5-3.1,4c0,0-0.1-2-1.4,0.9c-0.7,1.6-3.7-2.1-3.3-0.6c-0.2,0.7-1.1,3.1-1.1,3.9c-0.1,4.2,0.3,6.6,0.9,8.3
	c0.5,1.5,2,4.1,3.6,4.5c2,0.5,4.2,0.8,7,0.5c5.5-0.7,8.3-0.9,9.2-5.1c0.9-4,0.5-9.6-1.7-8.5c-0.4,0.2-0.2,0.5-0.6,0.8"/>
<path class="st5" d="M113.5,33.8c0,0-6.6-5.8-11.2,1.8"/>
<path class="st4" d="M113.5,33.8c0,0-6.6-5.8-11.2,1.8"/>
<path class="st6" d="M106.9,19.5c0,0-2.2,7,0.7,9.3c2.9,2.3,3.6-7.5,3.5-8.3c0,0,0.1-2.4-2-2.2C107.1,18.5,106.9,19.5,106.9,19.5z"
	/>
<path class="st5" d="M110.5,20.1c0.1,0.7-0.1,9.5-2.9,7.5c-1.6-1.2-1.9-5.9-1.7-8.1"/>
<path class="st7" d="M104.8,18.6c0.6,0.4,1.1,1.2,1,1.9c-0.2,1.8-0.4,5.4-1.1,6.9c-0.9,2.1-2.7,0.8-3.3-2.7c-0.6-3.3,0-4.9,1.3-6.2
	C103.4,17.8,104,18.1,104.8,18.6z"/>
<path class="st2" d="M101.6,26.9C101.6,26.9,101.6,26.9,101.6,26.9c0,0.2,0.2,2.1-1,3.2c-1.2,1.2-2.4-2-2.5-5.1
	c-0.1-3.1,1.4-4,2.6-3.1C100.7,21.9,101.3,23.1,101.6,26.9z"/>
<path class="st8" d="M114,32.1c0.9-1.1,0.6-1,1.4-2.3c1.4-2.7-3.6-5.4-2.2-6.2c1.4-0.7,7.9,1.9,7,5.1c-0.5,1.8-1.2,4.6-1.8,6"/>
</svg>
